<?xml version="1.0" encoding="UTF-8" standalone="no"?>
<!-- Created with Inkscape (http://www.inkscape.org/) -->

<svg
   xmlns:dc="http://purl.org/dc/elements/1.1/"
   xmlns:cc="http://creativecommons.org/ns#"
   xmlns:rdf="http://www.w3.org/1999/02/22-rdf-syntax-ns#"
   xmlns:svg="http://www.w3.org/2000/svg"
   xmlns="http://www.w3.org/2000/svg"
   version="1.1"
   width="210.68907"
   height="404.54285"
   id="svg3047">
  <title
     id="title3049">grey paws</title>
  <defs
     id="defs3069" />
  <metadata
     id="metadata1655">image/svg+xml<rdf:RDF>
  <cc:Work
     rdf:about="">
    <dc:format>image/svg+xml</dc:format>
    <dc:type
       rdf:resource="http://purl.org/dc/dcmitype/StillImage" />
    <dc:title>grey paws</dc:title>
  </cc:Work>
</rdf:RDF>
</metadata>
  <g
     transform="matrix(1.0382473,0,0,1.0382473,-1.3980624,-12.814223)"
     id="g4093">
    <g
       transform="matrix(0.15820029,0,0,0.15820029,1.5389285,337.98321)"
       id="g3902">
      <g
         transform="translate(-60.451852,32.89292)"
         id="svg_3"
         style="opacity:0.5">
        <path
           d="m 185.90108,99.951126 c -0.11321,0.0014 -0.22881,0.0083 -0.3432,0.0179 -4.5701,0.915254 -7.08335,6.520994 -7.44704,11.464704 -0.53226,4.48682 1.17172,10.2522 5.41788,11.2569 0.61657,0.13624 1.25601,0.0743 1.85813,-0.11562 5.112,-1.98875 7.40006,-9.01349 6.66185,-14.83118 -0.21554,-3.75872 -2.65655,-7.844995 -6.14762,-7.792703 z m -19.37537,0.240864 c -2.84163,0.0798 -5.05527,3.42428 -5.50554,6.56642 -0.94929,6.22644 1.49243,13.96409 7.08431,15.93222 0.52372,0.13214 1.0655,0.14589 1.59465,0.0509 3.77951,-0.73082 5.38064,-5.64565 5.22253,-9.61493 -0.11378,-5.23415 -2.45784,-11.28717 -7.14413,-12.75984 -0.42836,-0.13212 -0.84586,-0.18718 -1.25182,-0.17479 z m 31.75734,17.68428 c -4.9157,0.34134 -8.28516,6.03241 -8.76566,11.345 -0.65149,3.83165 1.11032,8.95842 4.87958,9.26396 5.2553,-0.0757 8.84032,-6.5898 8.98966,-12.19553 0.33235,-3.70779 -1.54987,-8.20836 -5.10358,-8.41343 z m -43.02768,1.26345 c -2.0914,-0.022 -4.14836,1.43139 -4.83177,3.89774 -1.82334,6.59807 1.83815,14.95367 7.86163,16.33963 2.51398,0.4996 4.72292,-1.73967 5.34622,-4.43448 1.32094,-5.76402 -1.39222,-12.45567 -5.98397,-15.07205 -0.74808,-0.48721 -1.5737,-0.72255 -2.39211,-0.73084 z m 22.0378,11.82944 c -4.09958,0.011 -8.26395,2.42371 -10.91893,6.01727 -2.86756,4.18813 -5.21653,9.06166 -6.13549,14.34671 -1.11645,3.80414 1.41402,8.18219 4.91954,8.20836 4.2175,0.13626 7.84201,-3.22334 12.03577,-3.47245 3.55768,-0.63035 6.74411,1.5167 9.94255,2.92192 2.724,1.35156 6.48725,0.83404 7.87814,-2.56682 1.09344,-3.46558 -0.51663,-7.16098 -1.84973,-10.23844 -2.72035,-4.996 -5.63461,-10.24665 -10.0951,-13.36676 -1.7871,-1.28549 -3.7741,-1.85389 -5.77675,-1.84979 z"
           transform="matrix(0.87715203,0.48021278,-0.48021278,0.87715203,84.045187,-68.900684)"
           id="svg_4"
           style="fill:#7f7f7f" />
      </g>
      <g
         transform="matrix(0.88093121,0.47324433,-0.47324433,0.88093121,114.63434,-17.957122)"
         id="svg_11"
         style="opacity:0.5">
        <path
           d="m 198.56512,291.09503 c -0.11584,0.002 -0.23414,0.008 -0.35122,0.0192 -4.67693,0.95312 -7.24893,6.79239 -7.6211,11.9414 -0.54472,4.6724 1.19912,10.67783 5.54453,11.7247 0.62974,0.14164 1.28537,0.077 1.90158,-0.12042 5.23149,-2.07141 7.57303,-9.38791 6.81757,-15.44821 -0.22059,-3.91406 -2.71988,-8.17047 -6.29136,-8.1167 z m -19.82792,0.25043 c -2.90845,0.0843 -5.1736,3.56671 -5.63449,6.8403 -0.97235,6.48548 1.52693,14.54382 7.24894,16.59461 0.53608,0.1376 1.09064,0.15182 1.63291,0.053 3.86723,-0.76098 5.50631,-5.88122 5.34363,-10.01458 -0.11583,-5.45252 -2.51407,-11.75711 -7.31055,-13.29026 -0.43871,-0.1372 -0.86513,-0.1951 -1.28044,-0.18307 z m 32.49936,18.42035 c -5.03063,0.35534 -8.48008,6.28207 -8.97179,11.81613 -0.66548,3.99149 1.13626,9.33002 4.99364,9.64853 5.37941,-0.0783 9.04822,-6.8638 9.20102,-12.70249 0.34015,-3.86142 -1.58731,-8.54885 -5.22287,-8.76217 z m -44.03331,1.31509 c -2.14066,-0.0218 -4.24556,1.49185 -4.94558,4.0607 -1.86582,6.87167 1.88187,15.57452 8.0463,17.01865 2.57198,0.5198 4.8322,-1.81296 5.47057,-4.61963 1.35192,-6.00308 -1.42464,-12.97354 -6.12375,-15.69867 -0.76532,-0.5073 -1.61074,-0.7526 -2.44754,-0.76105 z m 22.55276,12.32205 c -4.19507,0.0105 -8.4579,2.52454 -11.1741,6.26685 -2.93431,4.36191 -5.3387,9.43796 -6.27902,14.94266 -1.14243,3.96222 1.44683,8.52221 5.03433,8.54947 4.31582,0.14193 8.0253,-3.3573 12.31648,-3.61676 3.64173,-0.65513 6.90262,1.58117 10.17586,3.04476 2.78769,1.40632 6.6389,0.86731 8.0623,-2.67349 1.119,-3.61102 -0.52867,-7.45999 -1.89416,-10.66531 -2.78276,-5.20365 -5.76515,-10.67264 -10.32991,-13.92139 -1.82886,-1.33893 -3.86232,-1.9321 -5.91178,-1.92679 z"
           id="svg_12"
           style="fill:#7f7f7f" />
      </g>
      <g
         transform="translate(-60.451852,32.89292)"
         id="svg_1"
         style="opacity:0.5">
        <path
           d="m 141.65088,201.38899 c -0.11585,0.002 -0.23415,0.008 -0.35123,0.0192 -4.67692,0.95314 -7.24893,6.7924 -7.62109,11.94144 -0.54473,4.67239 1.19911,10.67779 5.54452,11.7247 0.62975,0.14163 1.28537,0.077 1.90158,-0.12043 5.23149,-2.07142 7.57303,-9.38792 6.81757,-15.44824 -0.22058,-3.91404 -2.71988,-8.17044 -6.29135,-8.1167 z m -19.82792,0.25046 c -2.90845,0.0843 -5.1736,3.56671 -5.63449,6.84029 -0.97234,6.48548 1.52693,14.54382 7.24895,16.59462 0.53607,0.1376 1.09063,0.15179 1.6329,0.053 3.86723,-0.76101 5.50631,-5.88124 5.34362,-10.01461 -0.11583,-5.45252 -2.51406,-11.7571 -7.31054,-13.29024 -0.4387,-0.13719 -0.86513,-0.1951 -1.28044,-0.18306 z m 32.49935,18.42032 c -5.03062,0.35536 -8.48007,6.28209 -8.97178,11.81615 -0.66549,3.99148 1.13626,9.33001 4.99363,9.64853 5.37941,-0.0782 9.04822,-6.8638 9.20102,-12.70249 0.34015,-3.86143 -1.58731,-8.54887 -5.22287,-8.76219 z m -44.0333,1.31511 c -2.14066,-0.0218 -4.24556,1.49185 -4.94556,4.06071 -1.86583,6.87166 1.88185,15.57451 8.04628,17.01863 2.57198,0.51981 4.8322,-1.81295 5.47057,-4.61963 1.35193,-6.00309 -1.42464,-12.97355 -6.12375,-15.69866 -0.76532,-0.50731 -1.61075,-0.7526 -2.44754,-0.76105 z m 22.55274,12.32205 c -4.19505,0.0105 -8.45788,2.52454 -11.17408,6.26685 -2.93431,4.3619 -5.3387,9.43795 -6.27902,14.94265 -1.14243,3.96222 1.44684,8.52222 5.03433,8.54947 4.31583,0.14194 8.02531,-3.3573 12.31646,-3.61676 3.64174,-0.65512 6.90264,1.58118 10.17588,3.04477 2.78768,1.40631 6.6389,0.86731 8.0623,-2.67349 1.119,-3.61102 -0.52867,-7.45999 -1.89417,-10.66532 -2.78276,-5.20364 -5.76515,-10.67263 -10.32991,-13.92138 -1.82886,-1.33893 -3.86232,-1.9321 -5.91179,-1.92679 z"
           transform="matrix(0.88093121,0.47324433,-0.47324433,0.88093121,125.77105,-34.890769)"
           id="svg_2"
           style="fill:#7f7f7f" />
      </g>
      <path
         d="m 245.36063,133.98185 c -0.1029,-0.0532 -0.2103,-0.10332 -0.31851,-0.14927 -4.5711,-1.37367 -9.60027,2.55312 -12.36487,6.91294 -2.69106,3.85826 -3.99685,9.97387 -0.66431,12.95257 0.48773,0.42278 1.09589,0.67612 1.73216,0.79383 5.58888,0.65099 11.11409,-4.68622 13.31659,-10.38246 1.65799,-3.5524 1.47059,-8.48477 -1.70106,-10.1276 z m -17.58555,-9.16281 c -2.60205,-1.30213 -6.24553,0.69365 -8.20075,3.35932 -3.92577,5.25313 -5.53764,13.53473 -1.46748,18.04925 0.40713,0.37491 0.88895,0.64985 1.41339,0.81945 3.76691,1.15973 7.63396,-2.57513 9.44674,-6.29335 2.47835,-4.85809 3.34925,-11.54696 -0.15056,-15.16745 -0.32153,-0.32847 -0.66981,-0.5813 -1.04134,-0.76722 z m 19.91236,31.60716 c -4.5998,-2.06765 -10.44332,1.52094 -13.49544,6.16337 -2.47521,3.2013 -3.4144,8.75683 -0.16705,10.86292 4.77588,2.47688 11.21912,-1.76452 14.11686,-6.83571 2.12704,-3.24067 2.64736,-8.28215 -0.45437,-10.19058 z m -39.41267,-19.67999 c -1.87545,-1.03225 -4.44604,-0.69496 -6.27841,1.23676 -4.89564,5.17048 -5.71279,14.61066 -0.96574,18.80011 2.01972,1.67508 5.11479,0.68971 7.00539,-1.48066 4.03189,-4.64854 4.88465,-12.10304 2.03471,-16.72749 -0.43411,-0.80909 -1.06279,-1.42526 -1.79595,-1.82872 z m 14.03609,21.52786 c -3.70054,-1.97604 -8.64554,-1.77871 -12.80935,0.23257 -4.64918,2.45391 -9.16952,5.78769 -12.60293,10.19194 -2.88149,2.9498 -2.75851,8.19218 0.38892,9.91396 3.73477,2.16749 8.65859,0.84039 12.56156,2.64259 3.51817,1.14633 5.33245,4.65954 7.52333,7.49791 1.79023,2.55812 5.43796,3.90583 8.36757,1.46026 2.69464,-2.6515 3.06466,-6.82193 3.37866,-10.29178 0.0112,-5.901 -0.028,-12.1302 -2.51173,-17.15238 -0.97746,-2.045 -2.4881,-3.52987 -4.29602,-4.49508 z"
         id="svg_7"
         style="opacity:0.5;fill:#7f7f7f" />
      <path
         d="m 191.36063,56.981851 c -0.1029,-0.05324 -0.21029,-0.103322 -0.31851,-0.149277 -4.57111,-1.373675 -9.60027,2.553126 -12.36487,6.912947 -2.69105,3.858267 -3.99686,9.973862 -0.66431,12.952568 0.48774,0.422793 1.09591,0.67609 1.73215,0.793828 5.58889,0.650994 11.1141,-4.686222 13.31661,-10.382462 1.65798,-3.552394 1.47058,-8.484764 -1.70107,-10.127599 z m -17.58557,-9.162819 c -2.60203,-1.30214 -6.24551,0.69365 -8.20072,3.359331 -3.92578,5.25312 -5.53766,13.534719 -1.46748,18.049243 0.40712,0.374912 0.88894,0.64986 1.41338,0.819459 3.76692,1.159746 7.63396,-2.575134 9.44673,-6.293347 2.47834,-4.858106 3.34926,-11.546961 -0.15056,-15.167461 -0.32154,-0.328469 -0.66978,-0.581282 -1.04135,-0.767224 z m 19.91239,31.607172 c -4.5998,-2.067663 -10.44332,1.520943 -13.49544,6.163369 -2.47521,3.201298 -3.41441,8.756831 -0.16707,10.862897 4.77592,2.476843 11.21913,-1.764507 14.11687,-6.835688 2.12704,-3.240671 2.64737,-8.282151 -0.45436,-10.190578 z M 154.27477,59.74621 c -1.87546,-1.032228 -4.44606,-0.694968 -6.27841,1.236753 -4.89564,5.170483 -5.71277,14.610664 -0.96575,18.800099 2.01974,1.675089 5.11481,0.68972 7.00541,-1.480659 4.03189,-4.648523 4.88465,-12.103014 2.0347,-16.727477 -0.43411,-0.809088 -1.0628,-1.425262 -1.79595,-1.828715 z m 14.03608,21.527842 c -3.70051,-1.976061 -8.64553,-1.778702 -12.80936,0.232585 -4.64917,2.453895 -9.16947,5.787687 -12.60291,10.191942 -2.88149,2.949799 -2.75852,8.192183 0.38891,9.913961 3.73478,2.16748 8.65858,0.84039 12.56157,2.6426 3.51815,1.14631 5.33247,4.65952 7.52332,7.4979 1.79024,2.55811 5.43798,3.90584 8.36756,1.46027 2.69466,-2.6515 3.06467,-6.82194 3.37867,-10.29181 0.0112,-5.900983 -0.0279,-12.130189 -2.51172,-17.152361 -0.97746,-2.045001 -2.48809,-3.529866 -4.29604,-4.495088 z"
         id="svg_8"
         style="opacity:0.5;fill:#7f7f7f" />
      <path
         d="m 52.360664,343.98175 c -0.102998,-0.0531 -0.210053,-0.10376 -0.318494,-0.1493 -4.571122,-1.37367 -9.600279,2.55313 -12.364873,6.91294 -2.691051,3.85827 -3.996873,9.97388 -0.664303,12.95257 0.487732,0.4228 1.095883,0.67612 1.73215,0.79383 5.588871,0.651 11.11409,-4.68621 13.316598,-10.38246 1.657977,-3.55238 1.470587,-8.48477 -1.701064,-10.1276 z m -17.585569,-9.16281 c -2.602036,-1.30215 -6.24551,0.69365 -8.200732,3.35934 -3.925773,5.2531 -5.537658,13.53472 -1.467477,18.04922 0.40712,0.37492 0.888938,0.64987 1.413394,0.81946 3.76691,1.15974 7.633941,-2.57512 9.446731,-6.29335 2.478332,-4.85811 3.34925,-11.54695 -0.150568,-15.16745 -0.321539,-0.32848 -0.669788,-0.58129 -1.041343,-0.76723 z m 19.912386,31.60717 c -4.599807,-2.06766 -10.443327,1.52095 -13.495452,6.16338 -2.475196,3.20128 -3.414412,8.75683 -0.167067,10.8629 4.775898,2.47688 11.219131,-1.76451 14.116879,-6.83571 2.127043,-3.24067 2.647371,-8.28215 -0.45436,-10.19057 z M 15.274793,346.74612 c -1.875454,-1.03225 -4.446056,-0.69496 -6.2783991,1.23675 -4.8956459,5.17047 -5.712772,14.61065 -0.9657605,18.80011 2.0197416,1.67508 5.1148076,0.68972 7.0054056,-1.48066 4.031895,-4.64853 4.884662,-12.10302 2.034705,-16.72748 -0.434108,-0.8091 -1.062799,-1.42526 -1.795951,-1.82872 z m 14.036081,21.52784 c -3.700523,-1.97603 -8.64554,-1.7787 -12.809354,0.23259 -4.649176,2.4539 -9.1694881,5.78769 -12.602916,10.19195 -2.8814969,2.9498 -2.7585086,8.19216 0.388912,9.91396 3.7347782,2.16747 8.658573,0.84039 12.561571,2.64258 3.518158,1.14631 5.332466,4.65954 7.523326,7.4979 1.79023,2.55813 5.437987,3.90584 8.367554,1.46028 2.694657,-2.6515 3.064676,-6.82193 3.378664,-10.29181 0.01118,-5.90098 -0.02793,-12.13018 -2.51172,-17.15236 -0.977457,-2.045 -2.488083,-3.52986 -4.296037,-4.49509 z"
         id="svg_9"
         style="opacity:0.5;fill:#7f7f7f" />
      <g
         transform="matrix(0.88093121,0.47324433,-0.47324433,0.88093121,160.86223,-120.63637)"
         id="g3890"
         style="opacity:0.5">
        <path
           d="m 198.56512,291.09503 c -0.11584,0.002 -0.23414,0.008 -0.35122,0.0192 -4.67693,0.95312 -7.24893,6.79239 -7.6211,11.9414 -0.54472,4.6724 1.19912,10.67783 5.54453,11.7247 0.62974,0.14164 1.28537,0.077 1.90158,-0.12042 5.23149,-2.07141 7.57303,-9.38791 6.81757,-15.44821 -0.22059,-3.91406 -2.71988,-8.17047 -6.29136,-8.1167 z m -19.82792,0.25043 c -2.90845,0.0843 -5.1736,3.56671 -5.63449,6.8403 -0.97235,6.48548 1.52693,14.54382 7.24894,16.59461 0.53608,0.1376 1.09064,0.15182 1.63291,0.053 3.86723,-0.76098 5.50631,-5.88122 5.34363,-10.01458 -0.11583,-5.45252 -2.51407,-11.75711 -7.31055,-13.29026 -0.43871,-0.1372 -0.86513,-0.1951 -1.28044,-0.18307 z m 32.49936,18.42035 c -5.03063,0.35534 -8.48008,6.28207 -8.97179,11.81613 -0.66548,3.99149 1.13626,9.33002 4.99364,9.64853 5.37941,-0.0783 9.04822,-6.8638 9.20102,-12.70249 0.34015,-3.86142 -1.58731,-8.54885 -5.22287,-8.76217 z m -44.03331,1.31509 c -2.14066,-0.0218 -4.24556,1.49185 -4.94558,4.0607 -1.86582,6.87167 1.88187,15.57452 8.0463,17.01865 2.57198,0.5198 4.8322,-1.81296 5.47057,-4.61963 1.35192,-6.00308 -1.42464,-12.97354 -6.12375,-15.69867 -0.76532,-0.5073 -1.61074,-0.7526 -2.44754,-0.76105 z m 22.55276,12.32205 c -4.19507,0.0105 -8.4579,2.52454 -11.1741,6.26685 -2.93431,4.36191 -5.3387,9.43796 -6.27902,14.94266 -1.14243,3.96222 1.44683,8.52221 5.03433,8.54947 4.31582,0.14193 8.0253,-3.3573 12.31648,-3.61676 3.64173,-0.65513 6.90262,1.58117 10.17586,3.04476 2.78769,1.40632 6.6389,0.86731 8.0623,-2.67349 1.119,-3.61102 -0.52867,-7.45999 -1.89416,-10.66531 -2.78276,-5.20365 -5.76515,-10.67264 -10.32991,-13.92139 -1.82886,-1.33893 -3.86232,-1.9321 -5.91178,-1.92679 z"
           id="path3892"
           style="fill:#7f7f7f" />
      </g>
      <path
         d="m 288.92152,41.970575 c -0.1029,-0.0532 -0.2103,-0.10332 -0.31851,-0.14927 -4.5711,-1.37367 -9.60027,2.55312 -12.36487,6.91294 -2.69106,3.85826 -3.99685,9.97387 -0.66431,12.95257 0.48773,0.42278 1.09589,0.67612 1.73216,0.79383 5.58888,0.65099 11.11409,-4.68622 13.31659,-10.38246 1.65799,-3.5524 1.47059,-8.48477 -1.70106,-10.1276 z m -17.58555,-9.16281 c -2.60205,-1.30213 -6.24553,0.69365 -8.20075,3.35932 -3.92577,5.25313 -5.53764,13.53473 -1.46748,18.04925 0.40713,0.37491 0.88895,0.64985 1.41339,0.81945 3.76691,1.15973 7.63396,-2.57513 9.44674,-6.29335 2.47835,-4.85809 3.34925,-11.54696 -0.15056,-15.16745 -0.32153,-0.32847 -0.66981,-0.5813 -1.04134,-0.76722 z m 19.91236,31.60716 c -4.5998,-2.06765 -10.44332,1.52094 -13.49544,6.16337 -2.47521,3.2013 -3.4144,8.75683 -0.16705,10.86292 4.77588,2.47688 11.21912,-1.76452 14.11686,-6.83571 2.12704,-3.24067 2.64736,-8.28215 -0.45437,-10.19058 z m -39.41267,-19.67999 c -1.87545,-1.03225 -4.44604,-0.69496 -6.27841,1.23676 -4.89564,5.17048 -5.71279,14.61066 -0.96574,18.80011 2.01972,1.67508 5.11479,0.68971 7.00539,-1.48066 4.03189,-4.64854 4.88465,-12.10304 2.03471,-16.72749 -0.43411,-0.80909 -1.06279,-1.42526 -1.79595,-1.82872 z m 14.03609,21.52786 c -3.70054,-1.97604 -8.64554,-1.77871 -12.80935,0.23257 -4.64918,2.45391 -9.16952,5.78769 -12.60293,10.19194 -2.88149,2.9498 -2.75851,8.19218 0.38892,9.91396 3.73477,2.16749 8.65859,0.84039 12.56156,2.64259 3.51817,1.14633 5.33245,4.65954 7.52333,7.49791 1.79023,2.55812 5.43796,3.905835 8.36757,1.46026 2.69464,-2.6515 3.06466,-6.82193 3.37866,-10.29178 0.0112,-5.901 -0.028,-12.1302 -2.51173,-17.15238 -0.97746,-2.045 -2.4881,-3.52987 -4.29602,-4.49508 z"
         id="path3894"
         style="opacity:0.5;fill:#7f7f7f" />
    </g>
    <g
       transform="matrix(0.15820029,0,0,0.15820029,30.467069,277.59122)"
       id="g3916">
      <g
         transform="translate(-60.451852,32.89292)"
         id="g3918"
         style="opacity:0.5">
        <path
           d="m 185.90108,99.951126 c -0.11321,0.0014 -0.22881,0.0083 -0.3432,0.0179 -4.5701,0.915254 -7.08335,6.520994 -7.44704,11.464704 -0.53226,4.48682 1.17172,10.2522 5.41788,11.2569 0.61657,0.13624 1.25601,0.0743 1.85813,-0.11562 5.112,-1.98875 7.40006,-9.01349 6.66185,-14.83118 -0.21554,-3.75872 -2.65655,-7.844995 -6.14762,-7.792703 z m -19.37537,0.240864 c -2.84163,0.0798 -5.05527,3.42428 -5.50554,6.56642 -0.94929,6.22644 1.49243,13.96409 7.08431,15.93222 0.52372,0.13214 1.0655,0.14589 1.59465,0.0509 3.77951,-0.73082 5.38064,-5.64565 5.22253,-9.61493 -0.11378,-5.23415 -2.45784,-11.28717 -7.14413,-12.75984 -0.42836,-0.13212 -0.84586,-0.18718 -1.25182,-0.17479 z m 31.75734,17.68428 c -4.9157,0.34134 -8.28516,6.03241 -8.76566,11.345 -0.65149,3.83165 1.11032,8.95842 4.87958,9.26396 5.2553,-0.0757 8.84032,-6.5898 8.98966,-12.19553 0.33235,-3.70779 -1.54987,-8.20836 -5.10358,-8.41343 z m -43.02768,1.26345 c -2.0914,-0.022 -4.14836,1.43139 -4.83177,3.89774 -1.82334,6.59807 1.83815,14.95367 7.86163,16.33963 2.51398,0.4996 4.72292,-1.73967 5.34622,-4.43448 1.32094,-5.76402 -1.39222,-12.45567 -5.98397,-15.07205 -0.74808,-0.48721 -1.5737,-0.72255 -2.39211,-0.73084 z m 22.0378,11.82944 c -4.09958,0.011 -8.26395,2.42371 -10.91893,6.01727 -2.86756,4.18813 -5.21653,9.06166 -6.13549,14.34671 -1.11645,3.80414 1.41402,8.18219 4.91954,8.20836 4.2175,0.13626 7.84201,-3.22334 12.03577,-3.47245 3.55768,-0.63035 6.74411,1.5167 9.94255,2.92192 2.724,1.35156 6.48725,0.83404 7.87814,-2.56682 1.09344,-3.46558 -0.51663,-7.16098 -1.84973,-10.23844 -2.72035,-4.996 -5.63461,-10.24665 -10.0951,-13.36676 -1.7871,-1.28549 -3.7741,-1.85389 -5.77675,-1.84979 z"
           transform="matrix(0.87715203,0.48021278,-0.48021278,0.87715203,84.045187,-68.900684)"
           id="path3920"
           style="fill:#7f7f7f" />
      </g>
      <g
         transform="matrix(0.88093121,0.47324433,-0.47324433,0.88093121,114.63434,-17.957122)"
         id="g3922"
         style="opacity:0.5">
        <path
           d="m 198.56512,291.09503 c -0.11584,0.002 -0.23414,0.008 -0.35122,0.0192 -4.67693,0.95312 -7.24893,6.79239 -7.6211,11.9414 -0.54472,4.6724 1.19912,10.67783 5.54453,11.7247 0.62974,0.14164 1.28537,0.077 1.90158,-0.12042 5.23149,-2.07141 7.57303,-9.38791 6.81757,-15.44821 -0.22059,-3.91406 -2.71988,-8.17047 -6.29136,-8.1167 z m -19.82792,0.25043 c -2.90845,0.0843 -5.1736,3.56671 -5.63449,6.8403 -0.97235,6.48548 1.52693,14.54382 7.24894,16.59461 0.53608,0.1376 1.09064,0.15182 1.63291,0.053 3.86723,-0.76098 5.50631,-5.88122 5.34363,-10.01458 -0.11583,-5.45252 -2.51407,-11.75711 -7.31055,-13.29026 -0.43871,-0.1372 -0.86513,-0.1951 -1.28044,-0.18307 z m 32.49936,18.42035 c -5.03063,0.35534 -8.48008,6.28207 -8.97179,11.81613 -0.66548,3.99149 1.13626,9.33002 4.99364,9.64853 5.37941,-0.0783 9.04822,-6.8638 9.20102,-12.70249 0.34015,-3.86142 -1.58731,-8.54885 -5.22287,-8.76217 z m -44.03331,1.31509 c -2.14066,-0.0218 -4.24556,1.49185 -4.94558,4.0607 -1.86582,6.87167 1.88187,15.57452 8.0463,17.01865 2.57198,0.5198 4.8322,-1.81296 5.47057,-4.61963 1.35192,-6.00308 -1.42464,-12.97354 -6.12375,-15.69867 -0.76532,-0.5073 -1.61074,-0.7526 -2.44754,-0.76105 z m 22.55276,12.32205 c -4.19507,0.0105 -8.4579,2.52454 -11.1741,6.26685 -2.93431,4.36191 -5.3387,9.43796 -6.27902,14.94266 -1.14243,3.96222 1.44683,8.52221 5.03433,8.54947 4.31582,0.14193 8.0253,-3.3573 12.31648,-3.61676 3.64173,-0.65513 6.90262,1.58117 10.17586,3.04476 2.78769,1.40632 6.6389,0.86731 8.0623,-2.67349 1.119,-3.61102 -0.52867,-7.45999 -1.89416,-10.66531 -2.78276,-5.20365 -5.76515,-10.67264 -10.32991,-13.92139 -1.82886,-1.33893 -3.86232,-1.9321 -5.91178,-1.92679 z"
           id="path3924"
           style="fill:#7f7f7f" />
      </g>
      <g
         transform="translate(-60.451852,32.89292)"
         id="g3926"
         style="opacity:0.5">
        <path
           d="m 141.65088,201.38899 c -0.11585,0.002 -0.23415,0.008 -0.35123,0.0192 -4.67692,0.95314 -7.24893,6.7924 -7.62109,11.94144 -0.54473,4.67239 1.19911,10.67779 5.54452,11.7247 0.62975,0.14163 1.28537,0.077 1.90158,-0.12043 5.23149,-2.07142 7.57303,-9.38792 6.81757,-15.44824 -0.22058,-3.91404 -2.71988,-8.17044 -6.29135,-8.1167 z m -19.82792,0.25046 c -2.90845,0.0843 -5.1736,3.56671 -5.63449,6.84029 -0.97234,6.48548 1.52693,14.54382 7.24895,16.59462 0.53607,0.1376 1.09063,0.15179 1.6329,0.053 3.86723,-0.76101 5.50631,-5.88124 5.34362,-10.01461 -0.11583,-5.45252 -2.51406,-11.7571 -7.31054,-13.29024 -0.4387,-0.13719 -0.86513,-0.1951 -1.28044,-0.18306 z m 32.49935,18.42032 c -5.03062,0.35536 -8.48007,6.28209 -8.97178,11.81615 -0.66549,3.99148 1.13626,9.33001 4.99363,9.64853 5.37941,-0.0782 9.04822,-6.8638 9.20102,-12.70249 0.34015,-3.86143 -1.58731,-8.54887 -5.22287,-8.76219 z m -44.0333,1.31511 c -2.14066,-0.0218 -4.24556,1.49185 -4.94556,4.06071 -1.86583,6.87166 1.88185,15.57451 8.04628,17.01863 2.57198,0.51981 4.8322,-1.81295 5.47057,-4.61963 1.35193,-6.00309 -1.42464,-12.97355 -6.12375,-15.69866 -0.76532,-0.50731 -1.61075,-0.7526 -2.44754,-0.76105 z m 22.55274,12.32205 c -4.19505,0.0105 -8.45788,2.52454 -11.17408,6.26685 -2.93431,4.3619 -5.3387,9.43795 -6.27902,14.94265 -1.14243,3.96222 1.44684,8.52222 5.03433,8.54947 4.31583,0.14194 8.02531,-3.3573 12.31646,-3.61676 3.64174,-0.65512 6.90264,1.58118 10.17588,3.04477 2.78768,1.40631 6.6389,0.86731 8.0623,-2.67349 1.119,-3.61102 -0.52867,-7.45999 -1.89417,-10.66532 -2.78276,-5.20364 -5.76515,-10.67263 -10.32991,-13.92138 -1.82886,-1.33893 -3.86232,-1.9321 -5.91179,-1.92679 z"
           transform="matrix(0.88093121,0.47324433,-0.47324433,0.88093121,125.77105,-34.890769)"
           id="path3928"
           style="fill:#7f7f7f" />
      </g>
      <path
         d="m 245.36063,133.98185 c -0.1029,-0.0532 -0.2103,-0.10332 -0.31851,-0.14927 -4.5711,-1.37367 -9.60027,2.55312 -12.36487,6.91294 -2.69106,3.85826 -3.99685,9.97387 -0.66431,12.95257 0.48773,0.42278 1.09589,0.67612 1.73216,0.79383 5.58888,0.65099 11.11409,-4.68622 13.31659,-10.38246 1.65799,-3.5524 1.47059,-8.48477 -1.70106,-10.1276 z m -17.58555,-9.16281 c -2.60205,-1.30213 -6.24553,0.69365 -8.20075,3.35932 -3.92577,5.25313 -5.53764,13.53473 -1.46748,18.04925 0.40713,0.37491 0.88895,0.64985 1.41339,0.81945 3.76691,1.15973 7.63396,-2.57513 9.44674,-6.29335 2.47835,-4.85809 3.34925,-11.54696 -0.15056,-15.16745 -0.32153,-0.32847 -0.66981,-0.5813 -1.04134,-0.76722 z m 19.91236,31.60716 c -4.5998,-2.06765 -10.44332,1.52094 -13.49544,6.16337 -2.47521,3.2013 -3.4144,8.75683 -0.16705,10.86292 4.77588,2.47688 11.21912,-1.76452 14.11686,-6.83571 2.12704,-3.24067 2.64736,-8.28215 -0.45437,-10.19058 z m -39.41267,-19.67999 c -1.87545,-1.03225 -4.44604,-0.69496 -6.27841,1.23676 -4.89564,5.17048 -5.71279,14.61066 -0.96574,18.80011 2.01972,1.67508 5.11479,0.68971 7.00539,-1.48066 4.03189,-4.64854 4.88465,-12.10304 2.03471,-16.72749 -0.43411,-0.80909 -1.06279,-1.42526 -1.79595,-1.82872 z m 14.03609,21.52786 c -3.70054,-1.97604 -8.64554,-1.77871 -12.80935,0.23257 -4.64918,2.45391 -9.16952,5.78769 -12.60293,10.19194 -2.88149,2.9498 -2.75851,8.19218 0.38892,9.91396 3.73477,2.16749 8.65859,0.84039 12.56156,2.64259 3.51817,1.14633 5.33245,4.65954 7.52333,7.49791 1.79023,2.55812 5.43796,3.90583 8.36757,1.46026 2.69464,-2.6515 3.06466,-6.82193 3.37866,-10.29178 0.0112,-5.901 -0.028,-12.1302 -2.51173,-17.15238 -0.97746,-2.045 -2.4881,-3.52987 -4.29602,-4.49508 z"
         id="path3930"
         style="opacity:0.5;fill:#7f7f7f" />
      <path
         d="m 191.36063,56.981851 c -0.1029,-0.05324 -0.21029,-0.103322 -0.31851,-0.149277 -4.57111,-1.373675 -9.60027,2.553126 -12.36487,6.912947 -2.69105,3.858267 -3.99686,9.973862 -0.66431,12.952568 0.48774,0.422793 1.09591,0.67609 1.73215,0.793828 5.58889,0.650994 11.1141,-4.686222 13.31661,-10.382462 1.65798,-3.552394 1.47058,-8.484764 -1.70107,-10.127599 z m -17.58557,-9.162819 c -2.60203,-1.30214 -6.24551,0.69365 -8.20072,3.359331 -3.92578,5.25312 -5.53766,13.534719 -1.46748,18.049243 0.40712,0.374912 0.88894,0.64986 1.41338,0.819459 3.76692,1.159746 7.63396,-2.575134 9.44673,-6.293347 2.47834,-4.858106 3.34926,-11.546961 -0.15056,-15.167461 -0.32154,-0.328469 -0.66978,-0.581282 -1.04135,-0.767224 z m 19.91239,31.607172 c -4.5998,-2.067663 -10.44332,1.520943 -13.49544,6.163369 -2.47521,3.201298 -3.41441,8.756831 -0.16707,10.862897 4.77592,2.476843 11.21913,-1.764507 14.11687,-6.835688 2.12704,-3.240671 2.64737,-8.282151 -0.45436,-10.190578 z M 154.27477,59.74621 c -1.87546,-1.032228 -4.44606,-0.694968 -6.27841,1.236753 -4.89564,5.170483 -5.71277,14.610664 -0.96575,18.800099 2.01974,1.675089 5.11481,0.68972 7.00541,-1.480659 4.03189,-4.648523 4.88465,-12.103014 2.0347,-16.727477 -0.43411,-0.809088 -1.0628,-1.425262 -1.79595,-1.828715 z m 14.03608,21.527842 c -3.70051,-1.976061 -8.64553,-1.778702 -12.80936,0.232585 -4.64917,2.453895 -9.16947,5.787687 -12.60291,10.191942 -2.88149,2.949799 -2.75852,8.192183 0.38891,9.913961 3.73478,2.16748 8.65858,0.84039 12.56157,2.6426 3.51815,1.14631 5.33247,4.65952 7.52332,7.4979 1.79024,2.55811 5.43798,3.90584 8.36756,1.46027 2.69466,-2.6515 3.06467,-6.82194 3.37867,-10.29181 0.0112,-5.900983 -0.0279,-12.130189 -2.51172,-17.152361 -0.97746,-2.045001 -2.48809,-3.529866 -4.29604,-4.495088 z"
         id="path3932"
         style="opacity:0.5;fill:#7f7f7f" />
      <path
         d="m 52.360664,343.98175 c -0.102998,-0.0531 -0.210053,-0.10376 -0.318494,-0.1493 -4.571122,-1.37367 -9.600279,2.55313 -12.364873,6.91294 -2.691051,3.85827 -3.996873,9.97388 -0.664303,12.95257 0.487732,0.4228 1.095883,0.67612 1.73215,0.79383 5.588871,0.651 11.11409,-4.68621 13.316598,-10.38246 1.657977,-3.55238 1.470587,-8.48477 -1.701064,-10.1276 z m -17.585569,-9.16281 c -2.602036,-1.30215 -6.24551,0.69365 -8.200732,3.35934 -3.925773,5.2531 -5.537658,13.53472 -1.467477,18.04922 0.40712,0.37492 0.888938,0.64987 1.413394,0.81946 3.76691,1.15974 7.633941,-2.57512 9.446731,-6.29335 2.478332,-4.85811 3.34925,-11.54695 -0.150568,-15.16745 -0.321539,-0.32848 -0.669788,-0.58129 -1.041343,-0.76723 z m 19.912386,31.60717 c -4.599807,-2.06766 -10.443327,1.52095 -13.495452,6.16338 -2.475196,3.20128 -3.414412,8.75683 -0.167067,10.8629 4.775898,2.47688 11.219131,-1.76451 14.116879,-6.83571 2.127043,-3.24067 2.647371,-8.28215 -0.45436,-10.19057 z M 15.274793,346.74612 c -1.875454,-1.03225 -4.446056,-0.69496 -6.2783991,1.23675 -4.8956459,5.17047 -5.712772,14.61065 -0.9657605,18.80011 2.0197416,1.67508 5.1148076,0.68972 7.0054056,-1.48066 4.031895,-4.64853 4.884662,-12.10302 2.034705,-16.72748 -0.434108,-0.8091 -1.062799,-1.42526 -1.795951,-1.82872 z m 14.036081,21.52784 c -3.700523,-1.97603 -8.64554,-1.7787 -12.809354,0.23259 -4.649176,2.4539 -9.1694881,5.78769 -12.602916,10.19195 -2.8814969,2.9498 -2.7585086,8.19216 0.388912,9.91396 3.7347782,2.16747 8.658573,0.84039 12.561571,2.64258 3.518158,1.14631 5.332466,4.65954 7.523326,7.4979 1.79023,2.55813 5.437987,3.90584 8.367554,1.46028 2.694657,-2.6515 3.064676,-6.82193 3.378664,-10.29181 0.01118,-5.90098 -0.02793,-12.13018 -2.51172,-17.15236 -0.977457,-2.045 -2.488083,-3.52986 -4.296037,-4.49509 z"
         id="path3934"
         style="opacity:0.5;fill:#7f7f7f" />
      <g
         transform="matrix(0.88093121,0.47324433,-0.47324433,0.88093121,160.86223,-120.63637)"
         id="g3936"
         style="opacity:0.5">
        <path
           d="m 198.56512,291.09503 c -0.11584,0.002 -0.23414,0.008 -0.35122,0.0192 -4.67693,0.95312 -7.24893,6.79239 -7.6211,11.9414 -0.54472,4.6724 1.19912,10.67783 5.54453,11.7247 0.62974,0.14164 1.28537,0.077 1.90158,-0.12042 5.23149,-2.07141 7.57303,-9.38791 6.81757,-15.44821 -0.22059,-3.91406 -2.71988,-8.17047 -6.29136,-8.1167 z m -19.82792,0.25043 c -2.90845,0.0843 -5.1736,3.56671 -5.63449,6.8403 -0.97235,6.48548 1.52693,14.54382 7.24894,16.59461 0.53608,0.1376 1.09064,0.15182 1.63291,0.053 3.86723,-0.76098 5.50631,-5.88122 5.34363,-10.01458 -0.11583,-5.45252 -2.51407,-11.75711 -7.31055,-13.29026 -0.43871,-0.1372 -0.86513,-0.1951 -1.28044,-0.18307 z m 32.49936,18.42035 c -5.03063,0.35534 -8.48008,6.28207 -8.97179,11.81613 -0.66548,3.99149 1.13626,9.33002 4.99364,9.64853 5.37941,-0.0783 9.04822,-6.8638 9.20102,-12.70249 0.34015,-3.86142 -1.58731,-8.54885 -5.22287,-8.76217 z m -44.03331,1.31509 c -2.14066,-0.0218 -4.24556,1.49185 -4.94558,4.0607 -1.86582,6.87167 1.88187,15.57452 8.0463,17.01865 2.57198,0.5198 4.8322,-1.81296 5.47057,-4.61963 1.35192,-6.00308 -1.42464,-12.97354 -6.12375,-15.69867 -0.76532,-0.5073 -1.61074,-0.7526 -2.44754,-0.76105 z m 22.55276,12.32205 c -4.19507,0.0105 -8.4579,2.52454 -11.1741,6.26685 -2.93431,4.36191 -5.3387,9.43796 -6.27902,14.94266 -1.14243,3.96222 1.44683,8.52221 5.03433,8.54947 4.31582,0.14193 8.0253,-3.3573 12.31648,-3.61676 3.64173,-0.65513 6.90262,1.58117 10.17586,3.04476 2.78769,1.40632 6.6389,0.86731 8.0623,-2.67349 1.119,-3.61102 -0.52867,-7.45999 -1.89416,-10.66531 -2.78276,-5.20365 -5.76515,-10.67264 -10.32991,-13.92139 -1.82886,-1.33893 -3.86232,-1.9321 -5.91178,-1.92679 z"
           id="path3938"
           style="fill:#7f7f7f" />
      </g>
      <path
         d="m 288.92152,41.970575 c -0.1029,-0.0532 -0.2103,-0.10332 -0.31851,-0.14927 -4.5711,-1.37367 -9.60027,2.55312 -12.36487,6.91294 -2.69106,3.85826 -3.99685,9.97387 -0.66431,12.95257 0.48773,0.42278 1.09589,0.67612 1.73216,0.79383 5.58888,0.65099 11.11409,-4.68622 13.31659,-10.38246 1.65799,-3.5524 1.47059,-8.48477 -1.70106,-10.1276 z m -17.58555,-9.16281 c -2.60205,-1.30213 -6.24553,0.69365 -8.20075,3.35932 -3.92577,5.25313 -5.53764,13.53473 -1.46748,18.04925 0.40713,0.37491 0.88895,0.64985 1.41339,0.81945 3.76691,1.15973 7.63396,-2.57513 9.44674,-6.29335 2.47835,-4.85809 3.34925,-11.54696 -0.15056,-15.16745 -0.32153,-0.32847 -0.66981,-0.5813 -1.04134,-0.76722 z m 19.91236,31.60716 c -4.5998,-2.06765 -10.44332,1.52094 -13.49544,6.16337 -2.47521,3.2013 -3.4144,8.75683 -0.16705,10.86292 4.77588,2.47688 11.21912,-1.76452 14.11686,-6.83571 2.12704,-3.24067 2.64736,-8.28215 -0.45437,-10.19058 z m -39.41267,-19.67999 c -1.87545,-1.03225 -4.44604,-0.69496 -6.27841,1.23676 -4.89564,5.17048 -5.71279,14.61066 -0.96574,18.80011 2.01972,1.67508 5.11479,0.68971 7.00539,-1.48066 4.03189,-4.64854 4.88465,-12.10304 2.03471,-16.72749 -0.43411,-0.80909 -1.06279,-1.42526 -1.79595,-1.82872 z m 14.03609,21.52786 c -3.70054,-1.97604 -8.64554,-1.77871 -12.80935,0.23257 -4.64918,2.45391 -9.16952,5.78769 -12.60293,10.19194 -2.88149,2.9498 -2.75851,8.19218 0.38892,9.91396 3.73477,2.16749 8.65859,0.84039 12.56156,2.64259 3.51817,1.14633 5.33245,4.65954 7.52333,7.49791 1.79023,2.55812 5.43796,3.905835 8.36757,1.46026 2.69464,-2.6515 3.06466,-6.82193 3.37866,-10.29178 0.0112,-5.901 -0.028,-12.1302 -2.51173,-17.15238 -0.97746,-2.045 -2.4881,-3.52987 -4.29602,-4.49508 z"
         id="path3940"
         style="opacity:0.5;fill:#7f7f7f" />
    </g>
    <g
       transform="matrix(0.15820029,0,0,0.15820029,58.323796,217.985)"
       id="g3942">
      <g
         transform="translate(-60.451852,32.89292)"
         id="g3944"
         style="opacity:0.5">
        <path
           d="m 185.90108,99.951126 c -0.11321,0.0014 -0.22881,0.0083 -0.3432,0.0179 -4.5701,0.915254 -7.08335,6.520994 -7.44704,11.464704 -0.53226,4.48682 1.17172,10.2522 5.41788,11.2569 0.61657,0.13624 1.25601,0.0743 1.85813,-0.11562 5.112,-1.98875 7.40006,-9.01349 6.66185,-14.83118 -0.21554,-3.75872 -2.65655,-7.844995 -6.14762,-7.792703 z m -19.37537,0.240864 c -2.84163,0.0798 -5.05527,3.42428 -5.50554,6.56642 -0.94929,6.22644 1.49243,13.96409 7.08431,15.93222 0.52372,0.13214 1.0655,0.14589 1.59465,0.0509 3.77951,-0.73082 5.38064,-5.64565 5.22253,-9.61493 -0.11378,-5.23415 -2.45784,-11.28717 -7.14413,-12.75984 -0.42836,-0.13212 -0.84586,-0.18718 -1.25182,-0.17479 z m 31.75734,17.68428 c -4.9157,0.34134 -8.28516,6.03241 -8.76566,11.345 -0.65149,3.83165 1.11032,8.95842 4.87958,9.26396 5.2553,-0.0757 8.84032,-6.5898 8.98966,-12.19553 0.33235,-3.70779 -1.54987,-8.20836 -5.10358,-8.41343 z m -43.02768,1.26345 c -2.0914,-0.022 -4.14836,1.43139 -4.83177,3.89774 -1.82334,6.59807 1.83815,14.95367 7.86163,16.33963 2.51398,0.4996 4.72292,-1.73967 5.34622,-4.43448 1.32094,-5.76402 -1.39222,-12.45567 -5.98397,-15.07205 -0.74808,-0.48721 -1.5737,-0.72255 -2.39211,-0.73084 z m 22.0378,11.82944 c -4.09958,0.011 -8.26395,2.42371 -10.91893,6.01727 -2.86756,4.18813 -5.21653,9.06166 -6.13549,14.34671 -1.11645,3.80414 1.41402,8.18219 4.91954,8.20836 4.2175,0.13626 7.84201,-3.22334 12.03577,-3.47245 3.55768,-0.63035 6.74411,1.5167 9.94255,2.92192 2.724,1.35156 6.48725,0.83404 7.87814,-2.56682 1.09344,-3.46558 -0.51663,-7.16098 -1.84973,-10.23844 -2.72035,-4.996 -5.63461,-10.24665 -10.0951,-13.36676 -1.7871,-1.28549 -3.7741,-1.85389 -5.77675,-1.84979 z"
           transform="matrix(0.87715203,0.48021278,-0.48021278,0.87715203,84.045187,-68.900684)"
           id="path3946"
           style="fill:#7f7f7f" />
      </g>
      <g
         transform="matrix(0.88093121,0.47324433,-0.47324433,0.88093121,114.63434,-17.957122)"
         id="g3948"
         style="opacity:0.5">
        <path
           d="m 198.56512,291.09503 c -0.11584,0.002 -0.23414,0.008 -0.35122,0.0192 -4.67693,0.95312 -7.24893,6.79239 -7.6211,11.9414 -0.54472,4.6724 1.19912,10.67783 5.54453,11.7247 0.62974,0.14164 1.28537,0.077 1.90158,-0.12042 5.23149,-2.07141 7.57303,-9.38791 6.81757,-15.44821 -0.22059,-3.91406 -2.71988,-8.17047 -6.29136,-8.1167 z m -19.82792,0.25043 c -2.90845,0.0843 -5.1736,3.56671 -5.63449,6.8403 -0.97235,6.48548 1.52693,14.54382 7.24894,16.59461 0.53608,0.1376 1.09064,0.15182 1.63291,0.053 3.86723,-0.76098 5.50631,-5.88122 5.34363,-10.01458 -0.11583,-5.45252 -2.51407,-11.75711 -7.31055,-13.29026 -0.43871,-0.1372 -0.86513,-0.1951 -1.28044,-0.18307 z m 32.49936,18.42035 c -5.03063,0.35534 -8.48008,6.28207 -8.97179,11.81613 -0.66548,3.99149 1.13626,9.33002 4.99364,9.64853 5.37941,-0.0783 9.04822,-6.8638 9.20102,-12.70249 0.34015,-3.86142 -1.58731,-8.54885 -5.22287,-8.76217 z m -44.03331,1.31509 c -2.14066,-0.0218 -4.24556,1.49185 -4.94558,4.0607 -1.86582,6.87167 1.88187,15.57452 8.0463,17.01865 2.57198,0.5198 4.8322,-1.81296 5.47057,-4.61963 1.35192,-6.00308 -1.42464,-12.97354 -6.12375,-15.69867 -0.76532,-0.5073 -1.61074,-0.7526 -2.44754,-0.76105 z m 22.55276,12.32205 c -4.19507,0.0105 -8.4579,2.52454 -11.1741,6.26685 -2.93431,4.36191 -5.3387,9.43796 -6.27902,14.94266 -1.14243,3.96222 1.44683,8.52221 5.03433,8.54947 4.31582,0.14193 8.0253,-3.3573 12.31648,-3.61676 3.64173,-0.65513 6.90262,1.58117 10.17586,3.04476 2.78769,1.40632 6.6389,0.86731 8.0623,-2.67349 1.119,-3.61102 -0.52867,-7.45999 -1.89416,-10.66531 -2.78276,-5.20365 -5.76515,-10.67264 -10.32991,-13.92139 -1.82886,-1.33893 -3.86232,-1.9321 -5.91178,-1.92679 z"
           id="path3950"
           style="fill:#7f7f7f" />
      </g>
      <g
         transform="translate(-60.451852,32.89292)"
         id="g3952"
         style="opacity:0.5">
        <path
           d="m 141.65088,201.38899 c -0.11585,0.002 -0.23415,0.008 -0.35123,0.0192 -4.67692,0.95314 -7.24893,6.7924 -7.62109,11.94144 -0.54473,4.67239 1.19911,10.67779 5.54452,11.7247 0.62975,0.14163 1.28537,0.077 1.90158,-0.12043 5.23149,-2.07142 7.57303,-9.38792 6.81757,-15.44824 -0.22058,-3.91404 -2.71988,-8.17044 -6.29135,-8.1167 z m -19.82792,0.25046 c -2.90845,0.0843 -5.1736,3.56671 -5.63449,6.84029 -0.97234,6.48548 1.52693,14.54382 7.24895,16.59462 0.53607,0.1376 1.09063,0.15179 1.6329,0.053 3.86723,-0.76101 5.50631,-5.88124 5.34362,-10.01461 -0.11583,-5.45252 -2.51406,-11.7571 -7.31054,-13.29024 -0.4387,-0.13719 -0.86513,-0.1951 -1.28044,-0.18306 z m 32.49935,18.42032 c -5.03062,0.35536 -8.48007,6.28209 -8.97178,11.81615 -0.66549,3.99148 1.13626,9.33001 4.99363,9.64853 5.37941,-0.0782 9.04822,-6.8638 9.20102,-12.70249 0.34015,-3.86143 -1.58731,-8.54887 -5.22287,-8.76219 z m -44.0333,1.31511 c -2.14066,-0.0218 -4.24556,1.49185 -4.94556,4.06071 -1.86583,6.87166 1.88185,15.57451 8.04628,17.01863 2.57198,0.51981 4.8322,-1.81295 5.47057,-4.61963 1.35193,-6.00309 -1.42464,-12.97355 -6.12375,-15.69866 -0.76532,-0.50731 -1.61075,-0.7526 -2.44754,-0.76105 z m 22.55274,12.32205 c -4.19505,0.0105 -8.45788,2.52454 -11.17408,6.26685 -2.93431,4.3619 -5.3387,9.43795 -6.27902,14.94265 -1.14243,3.96222 1.44684,8.52222 5.03433,8.54947 4.31583,0.14194 8.02531,-3.3573 12.31646,-3.61676 3.64174,-0.65512 6.90264,1.58118 10.17588,3.04477 2.78768,1.40631 6.6389,0.86731 8.0623,-2.67349 1.119,-3.61102 -0.52867,-7.45999 -1.89417,-10.66532 -2.78276,-5.20364 -5.76515,-10.67263 -10.32991,-13.92138 -1.82886,-1.33893 -3.86232,-1.9321 -5.91179,-1.92679 z"
           transform="matrix(0.88093121,0.47324433,-0.47324433,0.88093121,125.77105,-34.890769)"
           id="path3954"
           style="fill:#7f7f7f" />
      </g>
      <path
         d="m 245.36063,133.98185 c -0.1029,-0.0532 -0.2103,-0.10332 -0.31851,-0.14927 -4.5711,-1.37367 -9.60027,2.55312 -12.36487,6.91294 -2.69106,3.85826 -3.99685,9.97387 -0.66431,12.95257 0.48773,0.42278 1.09589,0.67612 1.73216,0.79383 5.58888,0.65099 11.11409,-4.68622 13.31659,-10.38246 1.65799,-3.5524 1.47059,-8.48477 -1.70106,-10.1276 z m -17.58555,-9.16281 c -2.60205,-1.30213 -6.24553,0.69365 -8.20075,3.35932 -3.92577,5.25313 -5.53764,13.53473 -1.46748,18.04925 0.40713,0.37491 0.88895,0.64985 1.41339,0.81945 3.76691,1.15973 7.63396,-2.57513 9.44674,-6.29335 2.47835,-4.85809 3.34925,-11.54696 -0.15056,-15.16745 -0.32153,-0.32847 -0.66981,-0.5813 -1.04134,-0.76722 z m 19.91236,31.60716 c -4.5998,-2.06765 -10.44332,1.52094 -13.49544,6.16337 -2.47521,3.2013 -3.4144,8.75683 -0.16705,10.86292 4.77588,2.47688 11.21912,-1.76452 14.11686,-6.83571 2.12704,-3.24067 2.64736,-8.28215 -0.45437,-10.19058 z m -39.41267,-19.67999 c -1.87545,-1.03225 -4.44604,-0.69496 -6.27841,1.23676 -4.89564,5.17048 -5.71279,14.61066 -0.96574,18.80011 2.01972,1.67508 5.11479,0.68971 7.00539,-1.48066 4.03189,-4.64854 4.88465,-12.10304 2.03471,-16.72749 -0.43411,-0.80909 -1.06279,-1.42526 -1.79595,-1.82872 z m 14.03609,21.52786 c -3.70054,-1.97604 -8.64554,-1.77871 -12.80935,0.23257 -4.64918,2.45391 -9.16952,5.78769 -12.60293,10.19194 -2.88149,2.9498 -2.75851,8.19218 0.38892,9.91396 3.73477,2.16749 8.65859,0.84039 12.56156,2.64259 3.51817,1.14633 5.33245,4.65954 7.52333,7.49791 1.79023,2.55812 5.43796,3.90583 8.36757,1.46026 2.69464,-2.6515 3.06466,-6.82193 3.37866,-10.29178 0.0112,-5.901 -0.028,-12.1302 -2.51173,-17.15238 -0.97746,-2.045 -2.4881,-3.52987 -4.29602,-4.49508 z"
         id="path3956"
         style="opacity:0.5;fill:#7f7f7f" />
      <path
         d="m 191.36063,56.981851 c -0.1029,-0.05324 -0.21029,-0.103322 -0.31851,-0.149277 -4.57111,-1.373675 -9.60027,2.553126 -12.36487,6.912947 -2.69105,3.858267 -3.99686,9.973862 -0.66431,12.952568 0.48774,0.422793 1.09591,0.67609 1.73215,0.793828 5.58889,0.650994 11.1141,-4.686222 13.31661,-10.382462 1.65798,-3.552394 1.47058,-8.484764 -1.70107,-10.127599 z m -17.58557,-9.162819 c -2.60203,-1.30214 -6.24551,0.69365 -8.20072,3.359331 -3.92578,5.25312 -5.53766,13.534719 -1.46748,18.049243 0.40712,0.374912 0.88894,0.64986 1.41338,0.819459 3.76692,1.159746 7.63396,-2.575134 9.44673,-6.293347 2.47834,-4.858106 3.34926,-11.546961 -0.15056,-15.167461 -0.32154,-0.328469 -0.66978,-0.581282 -1.04135,-0.767224 z m 19.91239,31.607172 c -4.5998,-2.067663 -10.44332,1.520943 -13.49544,6.163369 -2.47521,3.201298 -3.41441,8.756831 -0.16707,10.862897 4.77592,2.476843 11.21913,-1.764507 14.11687,-6.835688 2.12704,-3.240671 2.64737,-8.282151 -0.45436,-10.190578 z M 154.27477,59.74621 c -1.87546,-1.032228 -4.44606,-0.694968 -6.27841,1.236753 -4.89564,5.170483 -5.71277,14.610664 -0.96575,18.800099 2.01974,1.675089 5.11481,0.68972 7.00541,-1.480659 4.03189,-4.648523 4.88465,-12.103014 2.0347,-16.727477 -0.43411,-0.809088 -1.0628,-1.425262 -1.79595,-1.828715 z m 14.03608,21.527842 c -3.70051,-1.976061 -8.64553,-1.778702 -12.80936,0.232585 -4.64917,2.453895 -9.16947,5.787687 -12.60291,10.191942 -2.88149,2.949799 -2.75852,8.192183 0.38891,9.913961 3.73478,2.16748 8.65858,0.84039 12.56157,2.6426 3.51815,1.14631 5.33247,4.65952 7.52332,7.4979 1.79024,2.55811 5.43798,3.90584 8.36756,1.46027 2.69466,-2.6515 3.06467,-6.82194 3.37867,-10.29181 0.0112,-5.900983 -0.0279,-12.130189 -2.51172,-17.152361 -0.97746,-2.045001 -2.48809,-3.529866 -4.29604,-4.495088 z"
         id="path3958"
         style="opacity:0.5;fill:#7f7f7f" />
      <path
         d="m 52.360664,343.98175 c -0.102998,-0.0531 -0.210053,-0.10376 -0.318494,-0.1493 -4.571122,-1.37367 -9.600279,2.55313 -12.364873,6.91294 -2.691051,3.85827 -3.996873,9.97388 -0.664303,12.95257 0.487732,0.4228 1.095883,0.67612 1.73215,0.79383 5.588871,0.651 11.11409,-4.68621 13.316598,-10.38246 1.657977,-3.55238 1.470587,-8.48477 -1.701064,-10.1276 z m -17.585569,-9.16281 c -2.602036,-1.30215 -6.24551,0.69365 -8.200732,3.35934 -3.925773,5.2531 -5.537658,13.53472 -1.467477,18.04922 0.40712,0.37492 0.888938,0.64987 1.413394,0.81946 3.76691,1.15974 7.633941,-2.57512 9.446731,-6.29335 2.478332,-4.85811 3.34925,-11.54695 -0.150568,-15.16745 -0.321539,-0.32848 -0.669788,-0.58129 -1.041343,-0.76723 z m 19.912386,31.60717 c -4.599807,-2.06766 -10.443327,1.52095 -13.495452,6.16338 -2.475196,3.20128 -3.414412,8.75683 -0.167067,10.8629 4.775898,2.47688 11.219131,-1.76451 14.116879,-6.83571 2.127043,-3.24067 2.647371,-8.28215 -0.45436,-10.19057 z M 15.274793,346.74612 c -1.875454,-1.03225 -4.446056,-0.69496 -6.2783991,1.23675 -4.8956459,5.17047 -5.712772,14.61065 -0.9657605,18.80011 2.0197416,1.67508 5.1148076,0.68972 7.0054056,-1.48066 4.031895,-4.64853 4.884662,-12.10302 2.034705,-16.72748 -0.434108,-0.8091 -1.062799,-1.42526 -1.795951,-1.82872 z m 14.036081,21.52784 c -3.700523,-1.97603 -8.64554,-1.7787 -12.809354,0.23259 -4.649176,2.4539 -9.1694881,5.78769 -12.602916,10.19195 -2.8814969,2.9498 -2.7585086,8.19216 0.388912,9.91396 3.7347782,2.16747 8.658573,0.84039 12.561571,2.64258 3.518158,1.14631 5.332466,4.65954 7.523326,7.4979 1.79023,2.55813 5.437987,3.90584 8.367554,1.46028 2.694657,-2.6515 3.064676,-6.82193 3.378664,-10.29181 0.01118,-5.90098 -0.02793,-12.13018 -2.51172,-17.15236 -0.977457,-2.045 -2.488083,-3.52986 -4.296037,-4.49509 z"
         id="path3960"
         style="opacity:0.5;fill:#7f7f7f" />
      <g
         transform="matrix(0.88093121,0.47324433,-0.47324433,0.88093121,160.86223,-120.63637)"
         id="g3962"
         style="opacity:0.5">
        <path
           d="m 198.56512,291.09503 c -0.11584,0.002 -0.23414,0.008 -0.35122,0.0192 -4.67693,0.95312 -7.24893,6.79239 -7.6211,11.9414 -0.54472,4.6724 1.19912,10.67783 5.54453,11.7247 0.62974,0.14164 1.28537,0.077 1.90158,-0.12042 5.23149,-2.07141 7.57303,-9.38791 6.81757,-15.44821 -0.22059,-3.91406 -2.71988,-8.17047 -6.29136,-8.1167 z m -19.82792,0.25043 c -2.90845,0.0843 -5.1736,3.56671 -5.63449,6.8403 -0.97235,6.48548 1.52693,14.54382 7.24894,16.59461 0.53608,0.1376 1.09064,0.15182 1.63291,0.053 3.86723,-0.76098 5.50631,-5.88122 5.34363,-10.01458 -0.11583,-5.45252 -2.51407,-11.75711 -7.31055,-13.29026 -0.43871,-0.1372 -0.86513,-0.1951 -1.28044,-0.18307 z m 32.49936,18.42035 c -5.03063,0.35534 -8.48008,6.28207 -8.97179,11.81613 -0.66548,3.99149 1.13626,9.33002 4.99364,9.64853 5.37941,-0.0783 9.04822,-6.8638 9.20102,-12.70249 0.34015,-3.86142 -1.58731,-8.54885 -5.22287,-8.76217 z m -44.03331,1.31509 c -2.14066,-0.0218 -4.24556,1.49185 -4.94558,4.0607 -1.86582,6.87167 1.88187,15.57452 8.0463,17.01865 2.57198,0.5198 4.8322,-1.81296 5.47057,-4.61963 1.35192,-6.00308 -1.42464,-12.97354 -6.12375,-15.69867 -0.76532,-0.5073 -1.61074,-0.7526 -2.44754,-0.76105 z m 22.55276,12.32205 c -4.19507,0.0105 -8.4579,2.52454 -11.1741,6.26685 -2.93431,4.36191 -5.3387,9.43796 -6.27902,14.94266 -1.14243,3.96222 1.44683,8.52221 5.03433,8.54947 4.31582,0.14193 8.0253,-3.3573 12.31648,-3.61676 3.64173,-0.65513 6.90262,1.58117 10.17586,3.04476 2.78769,1.40632 6.6389,0.86731 8.0623,-2.67349 1.119,-3.61102 -0.52867,-7.45999 -1.89416,-10.66531 -2.78276,-5.20365 -5.76515,-10.67264 -10.32991,-13.92139 -1.82886,-1.33893 -3.86232,-1.9321 -5.91178,-1.92679 z"
           id="path3964"
           style="fill:#7f7f7f" />
      </g>
      <path
         d="m 288.92152,41.970575 c -0.1029,-0.0532 -0.2103,-0.10332 -0.31851,-0.14927 -4.5711,-1.37367 -9.60027,2.55312 -12.36487,6.91294 -2.69106,3.85826 -3.99685,9.97387 -0.66431,12.95257 0.48773,0.42278 1.09589,0.67612 1.73216,0.79383 5.58888,0.65099 11.11409,-4.68622 13.31659,-10.38246 1.65799,-3.5524 1.47059,-8.48477 -1.70106,-10.1276 z m -17.58555,-9.16281 c -2.60205,-1.30213 -6.24553,0.69365 -8.20075,3.35932 -3.92577,5.25313 -5.53764,13.53473 -1.46748,18.04925 0.40713,0.37491 0.88895,0.64985 1.41339,0.81945 3.76691,1.15973 7.63396,-2.57513 9.44674,-6.29335 2.47835,-4.85809 3.34925,-11.54696 -0.15056,-15.16745 -0.32153,-0.32847 -0.66981,-0.5813 -1.04134,-0.76722 z m 19.91236,31.60716 c -4.5998,-2.06765 -10.44332,1.52094 -13.49544,6.16337 -2.47521,3.2013 -3.4144,8.75683 -0.16705,10.86292 4.77588,2.47688 11.21912,-1.76452 14.11686,-6.83571 2.12704,-3.24067 2.64736,-8.28215 -0.45437,-10.19058 z m -39.41267,-19.67999 c -1.87545,-1.03225 -4.44604,-0.69496 -6.27841,1.23676 -4.89564,5.17048 -5.71279,14.61066 -0.96574,18.80011 2.01972,1.67508 5.11479,0.68971 7.00539,-1.48066 4.03189,-4.64854 4.88465,-12.10304 2.03471,-16.72749 -0.43411,-0.80909 -1.06279,-1.42526 -1.79595,-1.82872 z m 14.03609,21.52786 c -3.70054,-1.97604 -8.64554,-1.77871 -12.80935,0.23257 -4.64918,2.45391 -9.16952,5.78769 -12.60293,10.19194 -2.88149,2.9498 -2.75851,8.19218 0.38892,9.91396 3.73477,2.16749 8.65859,0.84039 12.56156,2.64259 3.51817,1.14633 5.33245,4.65954 7.52333,7.49791 1.79023,2.55812 5.43796,3.905835 8.36757,1.46026 2.69464,-2.6515 3.06466,-6.82193 3.37866,-10.29178 0.0112,-5.901 -0.028,-12.1302 -2.51173,-17.15238 -0.97746,-2.045 -2.4881,-3.52987 -4.29602,-4.49508 z"
         id="path3966"
         style="opacity:0.5;fill:#7f7f7f" />
    </g>
    <g
       transform="matrix(0.15820029,0,0,0.15820029,87.251937,157.59301)"
       id="g3968">
      <g
         transform="translate(-60.451852,32.89292)"
         id="g3970"
         style="opacity:0.5">
        <path
           d="m 185.90108,99.951126 c -0.11321,0.0014 -0.22881,0.0083 -0.3432,0.0179 -4.5701,0.915254 -7.08335,6.520994 -7.44704,11.464704 -0.53226,4.48682 1.17172,10.2522 5.41788,11.2569 0.61657,0.13624 1.25601,0.0743 1.85813,-0.11562 5.112,-1.98875 7.40006,-9.01349 6.66185,-14.83118 -0.21554,-3.75872 -2.65655,-7.844995 -6.14762,-7.792703 z m -19.37537,0.240864 c -2.84163,0.0798 -5.05527,3.42428 -5.50554,6.56642 -0.94929,6.22644 1.49243,13.96409 7.08431,15.93222 0.52372,0.13214 1.0655,0.14589 1.59465,0.0509 3.77951,-0.73082 5.38064,-5.64565 5.22253,-9.61493 -0.11378,-5.23415 -2.45784,-11.28717 -7.14413,-12.75984 -0.42836,-0.13212 -0.84586,-0.18718 -1.25182,-0.17479 z m 31.75734,17.68428 c -4.9157,0.34134 -8.28516,6.03241 -8.76566,11.345 -0.65149,3.83165 1.11032,8.95842 4.87958,9.26396 5.2553,-0.0757 8.84032,-6.5898 8.98966,-12.19553 0.33235,-3.70779 -1.54987,-8.20836 -5.10358,-8.41343 z m -43.02768,1.26345 c -2.0914,-0.022 -4.14836,1.43139 -4.83177,3.89774 -1.82334,6.59807 1.83815,14.95367 7.86163,16.33963 2.51398,0.4996 4.72292,-1.73967 5.34622,-4.43448 1.32094,-5.76402 -1.39222,-12.45567 -5.98397,-15.07205 -0.74808,-0.48721 -1.5737,-0.72255 -2.39211,-0.73084 z m 22.0378,11.82944 c -4.09958,0.011 -8.26395,2.42371 -10.91893,6.01727 -2.86756,4.18813 -5.21653,9.06166 -6.13549,14.34671 -1.11645,3.80414 1.41402,8.18219 4.91954,8.20836 4.2175,0.13626 7.84201,-3.22334 12.03577,-3.47245 3.55768,-0.63035 6.74411,1.5167 9.94255,2.92192 2.724,1.35156 6.48725,0.83404 7.87814,-2.56682 1.09344,-3.46558 -0.51663,-7.16098 -1.84973,-10.23844 -2.72035,-4.996 -5.63461,-10.24665 -10.0951,-13.36676 -1.7871,-1.28549 -3.7741,-1.85389 -5.77675,-1.84979 z"
           transform="matrix(0.87715203,0.48021278,-0.48021278,0.87715203,84.045187,-68.900684)"
           id="path3972"
           style="fill:#7f7f7f" />
      </g>
      <g
         transform="matrix(0.88093121,0.47324433,-0.47324433,0.88093121,114.63434,-17.957122)"
         id="g3974"
         style="opacity:0.5">
        <path
           d="m 198.56512,291.09503 c -0.11584,0.002 -0.23414,0.008 -0.35122,0.0192 -4.67693,0.95312 -7.24893,6.79239 -7.6211,11.9414 -0.54472,4.6724 1.19912,10.67783 5.54453,11.7247 0.62974,0.14164 1.28537,0.077 1.90158,-0.12042 5.23149,-2.07141 7.57303,-9.38791 6.81757,-15.44821 -0.22059,-3.91406 -2.71988,-8.17047 -6.29136,-8.1167 z m -19.82792,0.25043 c -2.90845,0.0843 -5.1736,3.56671 -5.63449,6.8403 -0.97235,6.48548 1.52693,14.54382 7.24894,16.59461 0.53608,0.1376 1.09064,0.15182 1.63291,0.053 3.86723,-0.76098 5.50631,-5.88122 5.34363,-10.01458 -0.11583,-5.45252 -2.51407,-11.75711 -7.31055,-13.29026 -0.43871,-0.1372 -0.86513,-0.1951 -1.28044,-0.18307 z m 32.49936,18.42035 c -5.03063,0.35534 -8.48008,6.28207 -8.97179,11.81613 -0.66548,3.99149 1.13626,9.33002 4.99364,9.64853 5.37941,-0.0783 9.04822,-6.8638 9.20102,-12.70249 0.34015,-3.86142 -1.58731,-8.54885 -5.22287,-8.76217 z m -44.03331,1.31509 c -2.14066,-0.0218 -4.24556,1.49185 -4.94558,4.0607 -1.86582,6.87167 1.88187,15.57452 8.0463,17.01865 2.57198,0.5198 4.8322,-1.81296 5.47057,-4.61963 1.35192,-6.00308 -1.42464,-12.97354 -6.12375,-15.69867 -0.76532,-0.5073 -1.61074,-0.7526 -2.44754,-0.76105 z m 22.55276,12.32205 c -4.19507,0.0105 -8.4579,2.52454 -11.1741,6.26685 -2.93431,4.36191 -5.3387,9.43796 -6.27902,14.94266 -1.14243,3.96222 1.44683,8.52221 5.03433,8.54947 4.31582,0.14193 8.0253,-3.3573 12.31648,-3.61676 3.64173,-0.65513 6.90262,1.58117 10.17586,3.04476 2.78769,1.40632 6.6389,0.86731 8.0623,-2.67349 1.119,-3.61102 -0.52867,-7.45999 -1.89416,-10.66531 -2.78276,-5.20365 -5.76515,-10.67264 -10.32991,-13.92139 -1.82886,-1.33893 -3.86232,-1.9321 -5.91178,-1.92679 z"
           id="path3976"
           style="fill:#7f7f7f" />
      </g>
      <g
         transform="translate(-60.451852,32.89292)"
         id="g3978"
         style="opacity:0.5">
        <path
           d="m 141.65088,201.38899 c -0.11585,0.002 -0.23415,0.008 -0.35123,0.0192 -4.67692,0.95314 -7.24893,6.7924 -7.62109,11.94144 -0.54473,4.67239 1.19911,10.67779 5.54452,11.7247 0.62975,0.14163 1.28537,0.077 1.90158,-0.12043 5.23149,-2.07142 7.57303,-9.38792 6.81757,-15.44824 -0.22058,-3.91404 -2.71988,-8.17044 -6.29135,-8.1167 z m -19.82792,0.25046 c -2.90845,0.0843 -5.1736,3.56671 -5.63449,6.84029 -0.97234,6.48548 1.52693,14.54382 7.24895,16.59462 0.53607,0.1376 1.09063,0.15179 1.6329,0.053 3.86723,-0.76101 5.50631,-5.88124 5.34362,-10.01461 -0.11583,-5.45252 -2.51406,-11.7571 -7.31054,-13.29024 -0.4387,-0.13719 -0.86513,-0.1951 -1.28044,-0.18306 z m 32.49935,18.42032 c -5.03062,0.35536 -8.48007,6.28209 -8.97178,11.81615 -0.66549,3.99148 1.13626,9.33001 4.99363,9.64853 5.37941,-0.0782 9.04822,-6.8638 9.20102,-12.70249 0.34015,-3.86143 -1.58731,-8.54887 -5.22287,-8.76219 z m -44.0333,1.31511 c -2.14066,-0.0218 -4.24556,1.49185 -4.94556,4.06071 -1.86583,6.87166 1.88185,15.57451 8.04628,17.01863 2.57198,0.51981 4.8322,-1.81295 5.47057,-4.61963 1.35193,-6.00309 -1.42464,-12.97355 -6.12375,-15.69866 -0.76532,-0.50731 -1.61075,-0.7526 -2.44754,-0.76105 z m 22.55274,12.32205 c -4.19505,0.0105 -8.45788,2.52454 -11.17408,6.26685 -2.93431,4.3619 -5.3387,9.43795 -6.27902,14.94265 -1.14243,3.96222 1.44684,8.52222 5.03433,8.54947 4.31583,0.14194 8.02531,-3.3573 12.31646,-3.61676 3.64174,-0.65512 6.90264,1.58118 10.17588,3.04477 2.78768,1.40631 6.6389,0.86731 8.0623,-2.67349 1.119,-3.61102 -0.52867,-7.45999 -1.89417,-10.66532 -2.78276,-5.20364 -5.76515,-10.67263 -10.32991,-13.92138 -1.82886,-1.33893 -3.86232,-1.9321 -5.91179,-1.92679 z"
           transform="matrix(0.88093121,0.47324433,-0.47324433,0.88093121,125.77105,-34.890769)"
           id="path3980"
           style="fill:#7f7f7f" />
      </g>
      <path
         d="m 245.36063,133.98185 c -0.1029,-0.0532 -0.2103,-0.10332 -0.31851,-0.14927 -4.5711,-1.37367 -9.60027,2.55312 -12.36487,6.91294 -2.69106,3.85826 -3.99685,9.97387 -0.66431,12.95257 0.48773,0.42278 1.09589,0.67612 1.73216,0.79383 5.58888,0.65099 11.11409,-4.68622 13.31659,-10.38246 1.65799,-3.5524 1.47059,-8.48477 -1.70106,-10.1276 z m -17.58555,-9.16281 c -2.60205,-1.30213 -6.24553,0.69365 -8.20075,3.35932 -3.92577,5.25313 -5.53764,13.53473 -1.46748,18.04925 0.40713,0.37491 0.88895,0.64985 1.41339,0.81945 3.76691,1.15973 7.63396,-2.57513 9.44674,-6.29335 2.47835,-4.85809 3.34925,-11.54696 -0.15056,-15.16745 -0.32153,-0.32847 -0.66981,-0.5813 -1.04134,-0.76722 z m 19.91236,31.60716 c -4.5998,-2.06765 -10.44332,1.52094 -13.49544,6.16337 -2.47521,3.2013 -3.4144,8.75683 -0.16705,10.86292 4.77588,2.47688 11.21912,-1.76452 14.11686,-6.83571 2.12704,-3.24067 2.64736,-8.28215 -0.45437,-10.19058 z m -39.41267,-19.67999 c -1.87545,-1.03225 -4.44604,-0.69496 -6.27841,1.23676 -4.89564,5.17048 -5.71279,14.61066 -0.96574,18.80011 2.01972,1.67508 5.11479,0.68971 7.00539,-1.48066 4.03189,-4.64854 4.88465,-12.10304 2.03471,-16.72749 -0.43411,-0.80909 -1.06279,-1.42526 -1.79595,-1.82872 z m 14.03609,21.52786 c -3.70054,-1.97604 -8.64554,-1.77871 -12.80935,0.23257 -4.64918,2.45391 -9.16952,5.78769 -12.60293,10.19194 -2.88149,2.9498 -2.75851,8.19218 0.38892,9.91396 3.73477,2.16749 8.65859,0.84039 12.56156,2.64259 3.51817,1.14633 5.33245,4.65954 7.52333,7.49791 1.79023,2.55812 5.43796,3.90583 8.36757,1.46026 2.69464,-2.6515 3.06466,-6.82193 3.37866,-10.29178 0.0112,-5.901 -0.028,-12.1302 -2.51173,-17.15238 -0.97746,-2.045 -2.4881,-3.52987 -4.29602,-4.49508 z"
         id="path3982"
         style="opacity:0.5;fill:#7f7f7f" />
      <path
         d="m 191.36063,56.981851 c -0.1029,-0.05324 -0.21029,-0.103322 -0.31851,-0.149277 -4.57111,-1.373675 -9.60027,2.553126 -12.36487,6.912947 -2.69105,3.858267 -3.99686,9.973862 -0.66431,12.952568 0.48774,0.422793 1.09591,0.67609 1.73215,0.793828 5.58889,0.650994 11.1141,-4.686222 13.31661,-10.382462 1.65798,-3.552394 1.47058,-8.484764 -1.70107,-10.127599 z m -17.58557,-9.162819 c -2.60203,-1.30214 -6.24551,0.69365 -8.20072,3.359331 -3.92578,5.25312 -5.53766,13.534719 -1.46748,18.049243 0.40712,0.374912 0.88894,0.64986 1.41338,0.819459 3.76692,1.159746 7.63396,-2.575134 9.44673,-6.293347 2.47834,-4.858106 3.34926,-11.546961 -0.15056,-15.167461 -0.32154,-0.328469 -0.66978,-0.581282 -1.04135,-0.767224 z m 19.91239,31.607172 c -4.5998,-2.067663 -10.44332,1.520943 -13.49544,6.163369 -2.47521,3.201298 -3.41441,8.756831 -0.16707,10.862897 4.77592,2.476843 11.21913,-1.764507 14.11687,-6.835688 2.12704,-3.240671 2.64737,-8.282151 -0.45436,-10.190578 z M 154.27477,59.74621 c -1.87546,-1.032228 -4.44606,-0.694968 -6.27841,1.236753 -4.89564,5.170483 -5.71277,14.610664 -0.96575,18.800099 2.01974,1.675089 5.11481,0.68972 7.00541,-1.480659 4.03189,-4.648523 4.88465,-12.103014 2.0347,-16.727477 -0.43411,-0.809088 -1.0628,-1.425262 -1.79595,-1.828715 z m 14.03608,21.527842 c -3.70051,-1.976061 -8.64553,-1.778702 -12.80936,0.232585 -4.64917,2.453895 -9.16947,5.787687 -12.60291,10.191942 -2.88149,2.949799 -2.75852,8.192183 0.38891,9.913961 3.73478,2.16748 8.65858,0.84039 12.56157,2.6426 3.51815,1.14631 5.33247,4.65952 7.52332,7.4979 1.79024,2.55811 5.43798,3.90584 8.36756,1.46027 2.69466,-2.6515 3.06467,-6.82194 3.37867,-10.29181 0.0112,-5.900983 -0.0279,-12.130189 -2.51172,-17.152361 -0.97746,-2.045001 -2.48809,-3.529866 -4.29604,-4.495088 z"
         id="path3984"
         style="opacity:0.5;fill:#7f7f7f" />
      <path
         d="m 52.360664,343.98175 c -0.102998,-0.0531 -0.210053,-0.10376 -0.318494,-0.1493 -4.571122,-1.37367 -9.600279,2.55313 -12.364873,6.91294 -2.691051,3.85827 -3.996873,9.97388 -0.664303,12.95257 0.487732,0.4228 1.095883,0.67612 1.73215,0.79383 5.588871,0.651 11.11409,-4.68621 13.316598,-10.38246 1.657977,-3.55238 1.470587,-8.48477 -1.701064,-10.1276 z m -17.585569,-9.16281 c -2.602036,-1.30215 -6.24551,0.69365 -8.200732,3.35934 -3.925773,5.2531 -5.537658,13.53472 -1.467477,18.04922 0.40712,0.37492 0.888938,0.64987 1.413394,0.81946 3.76691,1.15974 7.633941,-2.57512 9.446731,-6.29335 2.478332,-4.85811 3.34925,-11.54695 -0.150568,-15.16745 -0.321539,-0.32848 -0.669788,-0.58129 -1.041343,-0.76723 z m 19.912386,31.60717 c -4.599807,-2.06766 -10.443327,1.52095 -13.495452,6.16338 -2.475196,3.20128 -3.414412,8.75683 -0.167067,10.8629 4.775898,2.47688 11.219131,-1.76451 14.116879,-6.83571 2.127043,-3.24067 2.647371,-8.28215 -0.45436,-10.19057 z M 15.274793,346.74612 c -1.875454,-1.03225 -4.446056,-0.69496 -6.2783991,1.23675 -4.8956459,5.17047 -5.712772,14.61065 -0.9657605,18.80011 2.0197416,1.67508 5.1148076,0.68972 7.0054056,-1.48066 4.031895,-4.64853 4.884662,-12.10302 2.034705,-16.72748 -0.434108,-0.8091 -1.062799,-1.42526 -1.795951,-1.82872 z m 14.036081,21.52784 c -3.700523,-1.97603 -8.64554,-1.7787 -12.809354,0.23259 -4.649176,2.4539 -9.1694881,5.78769 -12.602916,10.19195 -2.8814969,2.9498 -2.7585086,8.19216 0.388912,9.91396 3.7347782,2.16747 8.658573,0.84039 12.561571,2.64258 3.518158,1.14631 5.332466,4.65954 7.523326,7.4979 1.79023,2.55813 5.437987,3.90584 8.367554,1.46028 2.694657,-2.6515 3.064676,-6.82193 3.378664,-10.29181 0.01118,-5.90098 -0.02793,-12.13018 -2.51172,-17.15236 -0.977457,-2.045 -2.488083,-3.52986 -4.296037,-4.49509 z"
         id="path3986"
         style="opacity:0.5;fill:#7f7f7f" />
      <g
         transform="matrix(0.88093121,0.47324433,-0.47324433,0.88093121,160.86223,-120.63637)"
         id="g3988"
         style="opacity:0.5">
        <path
           d="m 198.56512,291.09503 c -0.11584,0.002 -0.23414,0.008 -0.35122,0.0192 -4.67693,0.95312 -7.24893,6.79239 -7.6211,11.9414 -0.54472,4.6724 1.19912,10.67783 5.54453,11.7247 0.62974,0.14164 1.28537,0.077 1.90158,-0.12042 5.23149,-2.07141 7.57303,-9.38791 6.81757,-15.44821 -0.22059,-3.91406 -2.71988,-8.17047 -6.29136,-8.1167 z m -19.82792,0.25043 c -2.90845,0.0843 -5.1736,3.56671 -5.63449,6.8403 -0.97235,6.48548 1.52693,14.54382 7.24894,16.59461 0.53608,0.1376 1.09064,0.15182 1.63291,0.053 3.86723,-0.76098 5.50631,-5.88122 5.34363,-10.01458 -0.11583,-5.45252 -2.51407,-11.75711 -7.31055,-13.29026 -0.43871,-0.1372 -0.86513,-0.1951 -1.28044,-0.18307 z m 32.49936,18.42035 c -5.03063,0.35534 -8.48008,6.28207 -8.97179,11.81613 -0.66548,3.99149 1.13626,9.33002 4.99364,9.64853 5.37941,-0.0783 9.04822,-6.8638 9.20102,-12.70249 0.34015,-3.86142 -1.58731,-8.54885 -5.22287,-8.76217 z m -44.03331,1.31509 c -2.14066,-0.0218 -4.24556,1.49185 -4.94558,4.0607 -1.86582,6.87167 1.88187,15.57452 8.0463,17.01865 2.57198,0.5198 4.8322,-1.81296 5.47057,-4.61963 1.35192,-6.00308 -1.42464,-12.97354 -6.12375,-15.69867 -0.76532,-0.5073 -1.61074,-0.7526 -2.44754,-0.76105 z m 22.55276,12.32205 c -4.19507,0.0105 -8.4579,2.52454 -11.1741,6.26685 -2.93431,4.36191 -5.3387,9.43796 -6.27902,14.94266 -1.14243,3.96222 1.44683,8.52221 5.03433,8.54947 4.31582,0.14193 8.0253,-3.3573 12.31648,-3.61676 3.64173,-0.65513 6.90262,1.58117 10.17586,3.04476 2.78769,1.40632 6.6389,0.86731 8.0623,-2.67349 1.119,-3.61102 -0.52867,-7.45999 -1.89416,-10.66531 -2.78276,-5.20365 -5.76515,-10.67264 -10.32991,-13.92139 -1.82886,-1.33893 -3.86232,-1.9321 -5.91178,-1.92679 z"
           id="path3990"
           style="fill:#7f7f7f" />
      </g>
      <path
         d="m 288.92152,41.970575 c -0.1029,-0.0532 -0.2103,-0.10332 -0.31851,-0.14927 -4.5711,-1.37367 -9.60027,2.55312 -12.36487,6.91294 -2.69106,3.85826 -3.99685,9.97387 -0.66431,12.95257 0.48773,0.42278 1.09589,0.67612 1.73216,0.79383 5.58888,0.65099 11.11409,-4.68622 13.31659,-10.38246 1.65799,-3.5524 1.47059,-8.48477 -1.70106,-10.1276 z m -17.58555,-9.16281 c -2.60205,-1.30213 -6.24553,0.69365 -8.20075,3.35932 -3.92577,5.25313 -5.53764,13.53473 -1.46748,18.04925 0.40713,0.37491 0.88895,0.64985 1.41339,0.81945 3.76691,1.15973 7.63396,-2.57513 9.44674,-6.29335 2.47835,-4.85809 3.34925,-11.54696 -0.15056,-15.16745 -0.32153,-0.32847 -0.66981,-0.5813 -1.04134,-0.76722 z m 19.91236,31.60716 c -4.5998,-2.06765 -10.44332,1.52094 -13.49544,6.16337 -2.47521,3.2013 -3.4144,8.75683 -0.16705,10.86292 4.77588,2.47688 11.21912,-1.76452 14.11686,-6.83571 2.12704,-3.24067 2.64736,-8.28215 -0.45437,-10.19058 z m -39.41267,-19.67999 c -1.87545,-1.03225 -4.44604,-0.69496 -6.27841,1.23676 -4.89564,5.17048 -5.71279,14.61066 -0.96574,18.80011 2.01972,1.67508 5.11479,0.68971 7.00539,-1.48066 4.03189,-4.64854 4.88465,-12.10304 2.03471,-16.72749 -0.43411,-0.80909 -1.06279,-1.42526 -1.79595,-1.82872 z m 14.03609,21.52786 c -3.70054,-1.97604 -8.64554,-1.77871 -12.80935,0.23257 -4.64918,2.45391 -9.16952,5.78769 -12.60293,10.19194 -2.88149,2.9498 -2.75851,8.19218 0.38892,9.91396 3.73477,2.16749 8.65859,0.84039 12.56156,2.64259 3.51817,1.14633 5.33245,4.65954 7.52333,7.49791 1.79023,2.55812 5.43796,3.905835 8.36757,1.46026 2.69464,-2.6515 3.06466,-6.82193 3.37866,-10.29178 0.0112,-5.901 -0.028,-12.1302 -2.51173,-17.15238 -0.97746,-2.045 -2.4881,-3.52987 -4.29602,-4.49508 z"
         id="path3992"
         style="opacity:0.5;fill:#7f7f7f" />
    </g>
    <g
       transform="matrix(0.15820029,0,0,0.15820029,114.96584,97.986789)"
       id="g3994">
      <g
         transform="translate(-60.451852,32.89292)"
         id="g3996"
         style="opacity:0.5">
        <path
           d="m 185.90108,99.951126 c -0.11321,0.0014 -0.22881,0.0083 -0.3432,0.0179 -4.5701,0.915254 -7.08335,6.520994 -7.44704,11.464704 -0.53226,4.48682 1.17172,10.2522 5.41788,11.2569 0.61657,0.13624 1.25601,0.0743 1.85813,-0.11562 5.112,-1.98875 7.40006,-9.01349 6.66185,-14.83118 -0.21554,-3.75872 -2.65655,-7.844995 -6.14762,-7.792703 z m -19.37537,0.240864 c -2.84163,0.0798 -5.05527,3.42428 -5.50554,6.56642 -0.94929,6.22644 1.49243,13.96409 7.08431,15.93222 0.52372,0.13214 1.0655,0.14589 1.59465,0.0509 3.77951,-0.73082 5.38064,-5.64565 5.22253,-9.61493 -0.11378,-5.23415 -2.45784,-11.28717 -7.14413,-12.75984 -0.42836,-0.13212 -0.84586,-0.18718 -1.25182,-0.17479 z m 31.75734,17.68428 c -4.9157,0.34134 -8.28516,6.03241 -8.76566,11.345 -0.65149,3.83165 1.11032,8.95842 4.87958,9.26396 5.2553,-0.0757 8.84032,-6.5898 8.98966,-12.19553 0.33235,-3.70779 -1.54987,-8.20836 -5.10358,-8.41343 z m -43.02768,1.26345 c -2.0914,-0.022 -4.14836,1.43139 -4.83177,3.89774 -1.82334,6.59807 1.83815,14.95367 7.86163,16.33963 2.51398,0.4996 4.72292,-1.73967 5.34622,-4.43448 1.32094,-5.76402 -1.39222,-12.45567 -5.98397,-15.07205 -0.74808,-0.48721 -1.5737,-0.72255 -2.39211,-0.73084 z m 22.0378,11.82944 c -4.09958,0.011 -8.26395,2.42371 -10.91893,6.01727 -2.86756,4.18813 -5.21653,9.06166 -6.13549,14.34671 -1.11645,3.80414 1.41402,8.18219 4.91954,8.20836 4.2175,0.13626 7.84201,-3.22334 12.03577,-3.47245 3.55768,-0.63035 6.74411,1.5167 9.94255,2.92192 2.724,1.35156 6.48725,0.83404 7.87814,-2.56682 1.09344,-3.46558 -0.51663,-7.16098 -1.84973,-10.23844 -2.72035,-4.996 -5.63461,-10.24665 -10.0951,-13.36676 -1.7871,-1.28549 -3.7741,-1.85389 -5.77675,-1.84979 z"
           transform="matrix(0.87715203,0.48021278,-0.48021278,0.87715203,84.045187,-68.900684)"
           id="path3998"
           style="fill:#7f7f7f" />
      </g>
      <g
         transform="matrix(0.88093121,0.47324433,-0.47324433,0.88093121,114.63434,-17.957122)"
         id="g4000"
         style="opacity:0.5">
        <path
           d="m 198.56512,291.09503 c -0.11584,0.002 -0.23414,0.008 -0.35122,0.0192 -4.67693,0.95312 -7.24893,6.79239 -7.6211,11.9414 -0.54472,4.6724 1.19912,10.67783 5.54453,11.7247 0.62974,0.14164 1.28537,0.077 1.90158,-0.12042 5.23149,-2.07141 7.57303,-9.38791 6.81757,-15.44821 -0.22059,-3.91406 -2.71988,-8.17047 -6.29136,-8.1167 z m -19.82792,0.25043 c -2.90845,0.0843 -5.1736,3.56671 -5.63449,6.8403 -0.97235,6.48548 1.52693,14.54382 7.24894,16.59461 0.53608,0.1376 1.09064,0.15182 1.63291,0.053 3.86723,-0.76098 5.50631,-5.88122 5.34363,-10.01458 -0.11583,-5.45252 -2.51407,-11.75711 -7.31055,-13.29026 -0.43871,-0.1372 -0.86513,-0.1951 -1.28044,-0.18307 z m 32.49936,18.42035 c -5.03063,0.35534 -8.48008,6.28207 -8.97179,11.81613 -0.66548,3.99149 1.13626,9.33002 4.99364,9.64853 5.37941,-0.0783 9.04822,-6.8638 9.20102,-12.70249 0.34015,-3.86142 -1.58731,-8.54885 -5.22287,-8.76217 z m -44.03331,1.31509 c -2.14066,-0.0218 -4.24556,1.49185 -4.94558,4.0607 -1.86582,6.87167 1.88187,15.57452 8.0463,17.01865 2.57198,0.5198 4.8322,-1.81296 5.47057,-4.61963 1.35192,-6.00308 -1.42464,-12.97354 -6.12375,-15.69867 -0.76532,-0.5073 -1.61074,-0.7526 -2.44754,-0.76105 z m 22.55276,12.32205 c -4.19507,0.0105 -8.4579,2.52454 -11.1741,6.26685 -2.93431,4.36191 -5.3387,9.43796 -6.27902,14.94266 -1.14243,3.96222 1.44683,8.52221 5.03433,8.54947 4.31582,0.14193 8.0253,-3.3573 12.31648,-3.61676 3.64173,-0.65513 6.90262,1.58117 10.17586,3.04476 2.78769,1.40632 6.6389,0.86731 8.0623,-2.67349 1.119,-3.61102 -0.52867,-7.45999 -1.89416,-10.66531 -2.78276,-5.20365 -5.76515,-10.67264 -10.32991,-13.92139 -1.82886,-1.33893 -3.86232,-1.9321 -5.91178,-1.92679 z"
           id="path4002"
           style="fill:#7f7f7f" />
      </g>
      <g
         transform="translate(-60.451852,32.89292)"
         id="g4004"
         style="opacity:0.5">
        <path
           d="m 141.65088,201.38899 c -0.11585,0.002 -0.23415,0.008 -0.35123,0.0192 -4.67692,0.95314 -7.24893,6.7924 -7.62109,11.94144 -0.54473,4.67239 1.19911,10.67779 5.54452,11.7247 0.62975,0.14163 1.28537,0.077 1.90158,-0.12043 5.23149,-2.07142 7.57303,-9.38792 6.81757,-15.44824 -0.22058,-3.91404 -2.71988,-8.17044 -6.29135,-8.1167 z m -19.82792,0.25046 c -2.90845,0.0843 -5.1736,3.56671 -5.63449,6.84029 -0.97234,6.48548 1.52693,14.54382 7.24895,16.59462 0.53607,0.1376 1.09063,0.15179 1.6329,0.053 3.86723,-0.76101 5.50631,-5.88124 5.34362,-10.01461 -0.11583,-5.45252 -2.51406,-11.7571 -7.31054,-13.29024 -0.4387,-0.13719 -0.86513,-0.1951 -1.28044,-0.18306 z m 32.49935,18.42032 c -5.03062,0.35536 -8.48007,6.28209 -8.97178,11.81615 -0.66549,3.99148 1.13626,9.33001 4.99363,9.64853 5.37941,-0.0782 9.04822,-6.8638 9.20102,-12.70249 0.34015,-3.86143 -1.58731,-8.54887 -5.22287,-8.76219 z m -44.0333,1.31511 c -2.14066,-0.0218 -4.24556,1.49185 -4.94556,4.06071 -1.86583,6.87166 1.88185,15.57451 8.04628,17.01863 2.57198,0.51981 4.8322,-1.81295 5.47057,-4.61963 1.35193,-6.00309 -1.42464,-12.97355 -6.12375,-15.69866 -0.76532,-0.50731 -1.61075,-0.7526 -2.44754,-0.76105 z m 22.55274,12.32205 c -4.19505,0.0105 -8.45788,2.52454 -11.17408,6.26685 -2.93431,4.3619 -5.3387,9.43795 -6.27902,14.94265 -1.14243,3.96222 1.44684,8.52222 5.03433,8.54947 4.31583,0.14194 8.02531,-3.3573 12.31646,-3.61676 3.64174,-0.65512 6.90264,1.58118 10.17588,3.04477 2.78768,1.40631 6.6389,0.86731 8.0623,-2.67349 1.119,-3.61102 -0.52867,-7.45999 -1.89417,-10.66532 -2.78276,-5.20364 -5.76515,-10.67263 -10.32991,-13.92138 -1.82886,-1.33893 -3.86232,-1.9321 -5.91179,-1.92679 z"
           transform="matrix(0.88093121,0.47324433,-0.47324433,0.88093121,125.77105,-34.890769)"
           id="path4006"
           style="fill:#7f7f7f" />
      </g>
      <path
         d="m 245.36063,133.98185 c -0.1029,-0.0532 -0.2103,-0.10332 -0.31851,-0.14927 -4.5711,-1.37367 -9.60027,2.55312 -12.36487,6.91294 -2.69106,3.85826 -3.99685,9.97387 -0.66431,12.95257 0.48773,0.42278 1.09589,0.67612 1.73216,0.79383 5.58888,0.65099 11.11409,-4.68622 13.31659,-10.38246 1.65799,-3.5524 1.47059,-8.48477 -1.70106,-10.1276 z m -17.58555,-9.16281 c -2.60205,-1.30213 -6.24553,0.69365 -8.20075,3.35932 -3.92577,5.25313 -5.53764,13.53473 -1.46748,18.04925 0.40713,0.37491 0.88895,0.64985 1.41339,0.81945 3.76691,1.15973 7.63396,-2.57513 9.44674,-6.29335 2.47835,-4.85809 3.34925,-11.54696 -0.15056,-15.16745 -0.32153,-0.32847 -0.66981,-0.5813 -1.04134,-0.76722 z m 19.91236,31.60716 c -4.5998,-2.06765 -10.44332,1.52094 -13.49544,6.16337 -2.47521,3.2013 -3.4144,8.75683 -0.16705,10.86292 4.77588,2.47688 11.21912,-1.76452 14.11686,-6.83571 2.12704,-3.24067 2.64736,-8.28215 -0.45437,-10.19058 z m -39.41267,-19.67999 c -1.87545,-1.03225 -4.44604,-0.69496 -6.27841,1.23676 -4.89564,5.17048 -5.71279,14.61066 -0.96574,18.80011 2.01972,1.67508 5.11479,0.68971 7.00539,-1.48066 4.03189,-4.64854 4.88465,-12.10304 2.03471,-16.72749 -0.43411,-0.80909 -1.06279,-1.42526 -1.79595,-1.82872 z m 14.03609,21.52786 c -3.70054,-1.97604 -8.64554,-1.77871 -12.80935,0.23257 -4.64918,2.45391 -9.16952,5.78769 -12.60293,10.19194 -2.88149,2.9498 -2.75851,8.19218 0.38892,9.91396 3.73477,2.16749 8.65859,0.84039 12.56156,2.64259 3.51817,1.14633 5.33245,4.65954 7.52333,7.49791 1.79023,2.55812 5.43796,3.90583 8.36757,1.46026 2.69464,-2.6515 3.06466,-6.82193 3.37866,-10.29178 0.0112,-5.901 -0.028,-12.1302 -2.51173,-17.15238 -0.97746,-2.045 -2.4881,-3.52987 -4.29602,-4.49508 z"
         id="path4008"
         style="opacity:0.5;fill:#7f7f7f" />
      <path
         d="m 191.36063,56.981851 c -0.1029,-0.05324 -0.21029,-0.103322 -0.31851,-0.149277 -4.57111,-1.373675 -9.60027,2.553126 -12.36487,6.912947 -2.69105,3.858267 -3.99686,9.973862 -0.66431,12.952568 0.48774,0.422793 1.09591,0.67609 1.73215,0.793828 5.58889,0.650994 11.1141,-4.686222 13.31661,-10.382462 1.65798,-3.552394 1.47058,-8.484764 -1.70107,-10.127599 z m -17.58557,-9.162819 c -2.60203,-1.30214 -6.24551,0.69365 -8.20072,3.359331 -3.92578,5.25312 -5.53766,13.534719 -1.46748,18.049243 0.40712,0.374912 0.88894,0.64986 1.41338,0.819459 3.76692,1.159746 7.63396,-2.575134 9.44673,-6.293347 2.47834,-4.858106 3.34926,-11.546961 -0.15056,-15.167461 -0.32154,-0.328469 -0.66978,-0.581282 -1.04135,-0.767224 z m 19.91239,31.607172 c -4.5998,-2.067663 -10.44332,1.520943 -13.49544,6.163369 -2.47521,3.201298 -3.41441,8.756831 -0.16707,10.862897 4.77592,2.476843 11.21913,-1.764507 14.11687,-6.835688 2.12704,-3.240671 2.64737,-8.282151 -0.45436,-10.190578 z M 154.27477,59.74621 c -1.87546,-1.032228 -4.44606,-0.694968 -6.27841,1.236753 -4.89564,5.170483 -5.71277,14.610664 -0.96575,18.800099 2.01974,1.675089 5.11481,0.68972 7.00541,-1.480659 4.03189,-4.648523 4.88465,-12.103014 2.0347,-16.727477 -0.43411,-0.809088 -1.0628,-1.425262 -1.79595,-1.828715 z m 14.03608,21.527842 c -3.70051,-1.976061 -8.64553,-1.778702 -12.80936,0.232585 -4.64917,2.453895 -9.16947,5.787687 -12.60291,10.191942 -2.88149,2.949799 -2.75852,8.192183 0.38891,9.913961 3.73478,2.16748 8.65858,0.84039 12.56157,2.6426 3.51815,1.14631 5.33247,4.65952 7.52332,7.4979 1.79024,2.55811 5.43798,3.90584 8.36756,1.46027 2.69466,-2.6515 3.06467,-6.82194 3.37867,-10.29181 0.0112,-5.900983 -0.0279,-12.130189 -2.51172,-17.152361 -0.97746,-2.045001 -2.48809,-3.529866 -4.29604,-4.495088 z"
         id="path4010"
         style="opacity:0.5;fill:#7f7f7f" />
      <path
         d="m 52.360664,343.98175 c -0.102998,-0.0531 -0.210053,-0.10376 -0.318494,-0.1493 -4.571122,-1.37367 -9.600279,2.55313 -12.364873,6.91294 -2.691051,3.85827 -3.996873,9.97388 -0.664303,12.95257 0.487732,0.4228 1.095883,0.67612 1.73215,0.79383 5.588871,0.651 11.11409,-4.68621 13.316598,-10.38246 1.657977,-3.55238 1.470587,-8.48477 -1.701064,-10.1276 z m -17.585569,-9.16281 c -2.602036,-1.30215 -6.24551,0.69365 -8.200732,3.35934 -3.925773,5.2531 -5.537658,13.53472 -1.467477,18.04922 0.40712,0.37492 0.888938,0.64987 1.413394,0.81946 3.76691,1.15974 7.633941,-2.57512 9.446731,-6.29335 2.478332,-4.85811 3.34925,-11.54695 -0.150568,-15.16745 -0.321539,-0.32848 -0.669788,-0.58129 -1.041343,-0.76723 z m 19.912386,31.60717 c -4.599807,-2.06766 -10.443327,1.52095 -13.495452,6.16338 -2.475196,3.20128 -3.414412,8.75683 -0.167067,10.8629 4.775898,2.47688 11.219131,-1.76451 14.116879,-6.83571 2.127043,-3.24067 2.647371,-8.28215 -0.45436,-10.19057 z M 15.274793,346.74612 c -1.875454,-1.03225 -4.446056,-0.69496 -6.2783991,1.23675 -4.8956459,5.17047 -5.712772,14.61065 -0.9657605,18.80011 2.0197416,1.67508 5.1148076,0.68972 7.0054056,-1.48066 4.031895,-4.64853 4.884662,-12.10302 2.034705,-16.72748 -0.434108,-0.8091 -1.062799,-1.42526 -1.795951,-1.82872 z m 14.036081,21.52784 c -3.700523,-1.97603 -8.64554,-1.7787 -12.809354,0.23259 -4.649176,2.4539 -9.1694881,5.78769 -12.602916,10.19195 -2.8814969,2.9498 -2.7585086,8.19216 0.388912,9.91396 3.7347782,2.16747 8.658573,0.84039 12.561571,2.64258 3.518158,1.14631 5.332466,4.65954 7.523326,7.4979 1.79023,2.55813 5.437987,3.90584 8.367554,1.46028 2.694657,-2.6515 3.064676,-6.82193 3.378664,-10.29181 0.01118,-5.90098 -0.02793,-12.13018 -2.51172,-17.15236 -0.977457,-2.045 -2.488083,-3.52986 -4.296037,-4.49509 z"
         id="path4012"
         style="opacity:0.5;fill:#7f7f7f" />
      <g
         transform="matrix(0.88093121,0.47324433,-0.47324433,0.88093121,160.86223,-120.63637)"
         id="g4014"
         style="opacity:0.5">
        <path
           d="m 198.56512,291.09503 c -0.11584,0.002 -0.23414,0.008 -0.35122,0.0192 -4.67693,0.95312 -7.24893,6.79239 -7.6211,11.9414 -0.54472,4.6724 1.19912,10.67783 5.54453,11.7247 0.62974,0.14164 1.28537,0.077 1.90158,-0.12042 5.23149,-2.07141 7.57303,-9.38791 6.81757,-15.44821 -0.22059,-3.91406 -2.71988,-8.17047 -6.29136,-8.1167 z m -19.82792,0.25043 c -2.90845,0.0843 -5.1736,3.56671 -5.63449,6.8403 -0.97235,6.48548 1.52693,14.54382 7.24894,16.59461 0.53608,0.1376 1.09064,0.15182 1.63291,0.053 3.86723,-0.76098 5.50631,-5.88122 5.34363,-10.01458 -0.11583,-5.45252 -2.51407,-11.75711 -7.31055,-13.29026 -0.43871,-0.1372 -0.86513,-0.1951 -1.28044,-0.18307 z m 32.49936,18.42035 c -5.03063,0.35534 -8.48008,6.28207 -8.97179,11.81613 -0.66548,3.99149 1.13626,9.33002 4.99364,9.64853 5.37941,-0.0783 9.04822,-6.8638 9.20102,-12.70249 0.34015,-3.86142 -1.58731,-8.54885 -5.22287,-8.76217 z m -44.03331,1.31509 c -2.14066,-0.0218 -4.24556,1.49185 -4.94558,4.0607 -1.86582,6.87167 1.88187,15.57452 8.0463,17.01865 2.57198,0.5198 4.8322,-1.81296 5.47057,-4.61963 1.35192,-6.00308 -1.42464,-12.97354 -6.12375,-15.69867 -0.76532,-0.5073 -1.61074,-0.7526 -2.44754,-0.76105 z m 22.55276,12.32205 c -4.19507,0.0105 -8.4579,2.52454 -11.1741,6.26685 -2.93431,4.36191 -5.3387,9.43796 -6.27902,14.94266 -1.14243,3.96222 1.44683,8.52221 5.03433,8.54947 4.31582,0.14193 8.0253,-3.3573 12.31648,-3.61676 3.64173,-0.65513 6.90262,1.58117 10.17586,3.04476 2.78769,1.40632 6.6389,0.86731 8.0623,-2.67349 1.119,-3.61102 -0.52867,-7.45999 -1.89416,-10.66531 -2.78276,-5.20365 -5.76515,-10.67264 -10.32991,-13.92139 -1.82886,-1.33893 -3.86232,-1.9321 -5.91178,-1.92679 z"
           id="path4016"
           style="fill:#7f7f7f" />
      </g>
      <path
         d="m 288.92152,41.970575 c -0.1029,-0.0532 -0.2103,-0.10332 -0.31851,-0.14927 -4.5711,-1.37367 -9.60027,2.55312 -12.36487,6.91294 -2.69106,3.85826 -3.99685,9.97387 -0.66431,12.95257 0.48773,0.42278 1.09589,0.67612 1.73216,0.79383 5.58888,0.65099 11.11409,-4.68622 13.31659,-10.38246 1.65799,-3.5524 1.47059,-8.48477 -1.70106,-10.1276 z m -17.58555,-9.16281 c -2.60205,-1.30213 -6.24553,0.69365 -8.20075,3.35932 -3.92577,5.25313 -5.53764,13.53473 -1.46748,18.04925 0.40713,0.37491 0.88895,0.64985 1.41339,0.81945 3.76691,1.15973 7.63396,-2.57513 9.44674,-6.29335 2.47835,-4.85809 3.34925,-11.54696 -0.15056,-15.16745 -0.32153,-0.32847 -0.66981,-0.5813 -1.04134,-0.76722 z m 19.91236,31.60716 c -4.5998,-2.06765 -10.44332,1.52094 -13.49544,6.16337 -2.47521,3.2013 -3.4144,8.75683 -0.16705,10.86292 4.77588,2.47688 11.21912,-1.76452 14.11686,-6.83571 2.12704,-3.24067 2.64736,-8.28215 -0.45437,-10.19058 z m -39.41267,-19.67999 c -1.87545,-1.03225 -4.44604,-0.69496 -6.27841,1.23676 -4.89564,5.17048 -5.71279,14.61066 -0.96574,18.80011 2.01972,1.67508 5.11479,0.68971 7.00539,-1.48066 4.03189,-4.64854 4.88465,-12.10304 2.03471,-16.72749 -0.43411,-0.80909 -1.06279,-1.42526 -1.79595,-1.82872 z m 14.03609,21.52786 c -3.70054,-1.97604 -8.64554,-1.77871 -12.80935,0.23257 -4.64918,2.45391 -9.16952,5.78769 -12.60293,10.19194 -2.88149,2.9498 -2.75851,8.19218 0.38892,9.91396 3.73477,2.16749 8.65859,0.84039 12.56156,2.64259 3.51817,1.14633 5.33245,4.65954 7.52333,7.49791 1.79023,2.55812 5.43796,3.905835 8.36757,1.46026 2.69464,-2.6515 3.06466,-6.82193 3.37866,-10.29178 0.0112,-5.901 -0.028,-12.1302 -2.51173,-17.15238 -0.97746,-2.045 -2.4881,-3.52987 -4.29602,-4.49508 z"
         id="path4018"
         style="opacity:0.5;fill:#7f7f7f" />
    </g>
    <g
       transform="matrix(0.15820029,0,0,0.15820029,143.89398,37.594799)"
       id="g4020">
      <g
         transform="translate(-60.451852,32.89292)"
         id="g4022"
         style="opacity:0.5">
        <path
           d="m 185.90108,99.951126 c -0.11321,0.0014 -0.22881,0.0083 -0.3432,0.0179 -4.5701,0.915254 -7.08335,6.520994 -7.44704,11.464704 -0.53226,4.48682 1.17172,10.2522 5.41788,11.2569 0.61657,0.13624 1.25601,0.0743 1.85813,-0.11562 5.112,-1.98875 7.40006,-9.01349 6.66185,-14.83118 -0.21554,-3.75872 -2.65655,-7.844995 -6.14762,-7.792703 z m -19.37537,0.240864 c -2.84163,0.0798 -5.05527,3.42428 -5.50554,6.56642 -0.94929,6.22644 1.49243,13.96409 7.08431,15.93222 0.52372,0.13214 1.0655,0.14589 1.59465,0.0509 3.77951,-0.73082 5.38064,-5.64565 5.22253,-9.61493 -0.11378,-5.23415 -2.45784,-11.28717 -7.14413,-12.75984 -0.42836,-0.13212 -0.84586,-0.18718 -1.25182,-0.17479 z m 31.75734,17.68428 c -4.9157,0.34134 -8.28516,6.03241 -8.76566,11.345 -0.65149,3.83165 1.11032,8.95842 4.87958,9.26396 5.2553,-0.0757 8.84032,-6.5898 8.98966,-12.19553 0.33235,-3.70779 -1.54987,-8.20836 -5.10358,-8.41343 z m -43.02768,1.26345 c -2.0914,-0.022 -4.14836,1.43139 -4.83177,3.89774 -1.82334,6.59807 1.83815,14.95367 7.86163,16.33963 2.51398,0.4996 4.72292,-1.73967 5.34622,-4.43448 1.32094,-5.76402 -1.39222,-12.45567 -5.98397,-15.07205 -0.74808,-0.48721 -1.5737,-0.72255 -2.39211,-0.73084 z m 22.0378,11.82944 c -4.09958,0.011 -8.26395,2.42371 -10.91893,6.01727 -2.86756,4.18813 -5.21653,9.06166 -6.13549,14.34671 -1.11645,3.80414 1.41402,8.18219 4.91954,8.20836 4.2175,0.13626 7.84201,-3.22334 12.03577,-3.47245 3.55768,-0.63035 6.74411,1.5167 9.94255,2.92192 2.724,1.35156 6.48725,0.83404 7.87814,-2.56682 1.09344,-3.46558 -0.51663,-7.16098 -1.84973,-10.23844 -2.72035,-4.996 -5.63461,-10.24665 -10.0951,-13.36676 -1.7871,-1.28549 -3.7741,-1.85389 -5.77675,-1.84979 z"
           transform="matrix(0.87715203,0.48021278,-0.48021278,0.87715203,84.045187,-68.900684)"
           id="path4024"
           style="fill:#7f7f7f" />
      </g>
      <g
         transform="matrix(0.88093121,0.47324433,-0.47324433,0.88093121,114.63434,-17.957122)"
         id="g4026"
         style="opacity:0.5">
        <path
           d="m 198.56512,291.09503 c -0.11584,0.002 -0.23414,0.008 -0.35122,0.0192 -4.67693,0.95312 -7.24893,6.79239 -7.6211,11.9414 -0.54472,4.6724 1.19912,10.67783 5.54453,11.7247 0.62974,0.14164 1.28537,0.077 1.90158,-0.12042 5.23149,-2.07141 7.57303,-9.38791 6.81757,-15.44821 -0.22059,-3.91406 -2.71988,-8.17047 -6.29136,-8.1167 z m -19.82792,0.25043 c -2.90845,0.0843 -5.1736,3.56671 -5.63449,6.8403 -0.97235,6.48548 1.52693,14.54382 7.24894,16.59461 0.53608,0.1376 1.09064,0.15182 1.63291,0.053 3.86723,-0.76098 5.50631,-5.88122 5.34363,-10.01458 -0.11583,-5.45252 -2.51407,-11.75711 -7.31055,-13.29026 -0.43871,-0.1372 -0.86513,-0.1951 -1.28044,-0.18307 z m 32.49936,18.42035 c -5.03063,0.35534 -8.48008,6.28207 -8.97179,11.81613 -0.66548,3.99149 1.13626,9.33002 4.99364,9.64853 5.37941,-0.0783 9.04822,-6.8638 9.20102,-12.70249 0.34015,-3.86142 -1.58731,-8.54885 -5.22287,-8.76217 z m -44.03331,1.31509 c -2.14066,-0.0218 -4.24556,1.49185 -4.94558,4.0607 -1.86582,6.87167 1.88187,15.57452 8.0463,17.01865 2.57198,0.5198 4.8322,-1.81296 5.47057,-4.61963 1.35192,-6.00308 -1.42464,-12.97354 -6.12375,-15.69867 -0.76532,-0.5073 -1.61074,-0.7526 -2.44754,-0.76105 z m 22.55276,12.32205 c -4.19507,0.0105 -8.4579,2.52454 -11.1741,6.26685 -2.93431,4.36191 -5.3387,9.43796 -6.27902,14.94266 -1.14243,3.96222 1.44683,8.52221 5.03433,8.54947 4.31582,0.14193 8.0253,-3.3573 12.31648,-3.61676 3.64173,-0.65513 6.90262,1.58117 10.17586,3.04476 2.78769,1.40632 6.6389,0.86731 8.0623,-2.67349 1.119,-3.61102 -0.52867,-7.45999 -1.89416,-10.66531 -2.78276,-5.20365 -5.76515,-10.67264 -10.32991,-13.92139 -1.82886,-1.33893 -3.86232,-1.9321 -5.91178,-1.92679 z"
           id="path4028"
           style="fill:#7f7f7f" />
      </g>
      <g
         transform="translate(-60.451852,32.89292)"
         id="g4030"
         style="opacity:0.5">
        <path
           d="m 141.65088,201.38899 c -0.11585,0.002 -0.23415,0.008 -0.35123,0.0192 -4.67692,0.95314 -7.24893,6.7924 -7.62109,11.94144 -0.54473,4.67239 1.19911,10.67779 5.54452,11.7247 0.62975,0.14163 1.28537,0.077 1.90158,-0.12043 5.23149,-2.07142 7.57303,-9.38792 6.81757,-15.44824 -0.22058,-3.91404 -2.71988,-8.17044 -6.29135,-8.1167 z m -19.82792,0.25046 c -2.90845,0.0843 -5.1736,3.56671 -5.63449,6.84029 -0.97234,6.48548 1.52693,14.54382 7.24895,16.59462 0.53607,0.1376 1.09063,0.15179 1.6329,0.053 3.86723,-0.76101 5.50631,-5.88124 5.34362,-10.01461 -0.11583,-5.45252 -2.51406,-11.7571 -7.31054,-13.29024 -0.4387,-0.13719 -0.86513,-0.1951 -1.28044,-0.18306 z m 32.49935,18.42032 c -5.03062,0.35536 -8.48007,6.28209 -8.97178,11.81615 -0.66549,3.99148 1.13626,9.33001 4.99363,9.64853 5.37941,-0.0782 9.04822,-6.8638 9.20102,-12.70249 0.34015,-3.86143 -1.58731,-8.54887 -5.22287,-8.76219 z m -44.0333,1.31511 c -2.14066,-0.0218 -4.24556,1.49185 -4.94556,4.06071 -1.86583,6.87166 1.88185,15.57451 8.04628,17.01863 2.57198,0.51981 4.8322,-1.81295 5.47057,-4.61963 1.35193,-6.00309 -1.42464,-12.97355 -6.12375,-15.69866 -0.76532,-0.50731 -1.61075,-0.7526 -2.44754,-0.76105 z m 22.55274,12.32205 c -4.19505,0.0105 -8.45788,2.52454 -11.17408,6.26685 -2.93431,4.3619 -5.3387,9.43795 -6.27902,14.94265 -1.14243,3.96222 1.44684,8.52222 5.03433,8.54947 4.31583,0.14194 8.02531,-3.3573 12.31646,-3.61676 3.64174,-0.65512 6.90264,1.58118 10.17588,3.04477 2.78768,1.40631 6.6389,0.86731 8.0623,-2.67349 1.119,-3.61102 -0.52867,-7.45999 -1.89417,-10.66532 -2.78276,-5.20364 -5.76515,-10.67263 -10.32991,-13.92138 -1.82886,-1.33893 -3.86232,-1.9321 -5.91179,-1.92679 z"
           transform="matrix(0.88093121,0.47324433,-0.47324433,0.88093121,125.77105,-34.890769)"
           id="path4032"
           style="fill:#7f7f7f" />
      </g>
      <path
         d="m 245.36063,133.98185 c -0.1029,-0.0532 -0.2103,-0.10332 -0.31851,-0.14927 -4.5711,-1.37367 -9.60027,2.55312 -12.36487,6.91294 -2.69106,3.85826 -3.99685,9.97387 -0.66431,12.95257 0.48773,0.42278 1.09589,0.67612 1.73216,0.79383 5.58888,0.65099 11.11409,-4.68622 13.31659,-10.38246 1.65799,-3.5524 1.47059,-8.48477 -1.70106,-10.1276 z m -17.58555,-9.16281 c -2.60205,-1.30213 -6.24553,0.69365 -8.20075,3.35932 -3.92577,5.25313 -5.53764,13.53473 -1.46748,18.04925 0.40713,0.37491 0.88895,0.64985 1.41339,0.81945 3.76691,1.15973 7.63396,-2.57513 9.44674,-6.29335 2.47835,-4.85809 3.34925,-11.54696 -0.15056,-15.16745 -0.32153,-0.32847 -0.66981,-0.5813 -1.04134,-0.76722 z m 19.91236,31.60716 c -4.5998,-2.06765 -10.44332,1.52094 -13.49544,6.16337 -2.47521,3.2013 -3.4144,8.75683 -0.16705,10.86292 4.77588,2.47688 11.21912,-1.76452 14.11686,-6.83571 2.12704,-3.24067 2.64736,-8.28215 -0.45437,-10.19058 z m -39.41267,-19.67999 c -1.87545,-1.03225 -4.44604,-0.69496 -6.27841,1.23676 -4.89564,5.17048 -5.71279,14.61066 -0.96574,18.80011 2.01972,1.67508 5.11479,0.68971 7.00539,-1.48066 4.03189,-4.64854 4.88465,-12.10304 2.03471,-16.72749 -0.43411,-0.80909 -1.06279,-1.42526 -1.79595,-1.82872 z m 14.03609,21.52786 c -3.70054,-1.97604 -8.64554,-1.77871 -12.80935,0.23257 -4.64918,2.45391 -9.16952,5.78769 -12.60293,10.19194 -2.88149,2.9498 -2.75851,8.19218 0.38892,9.91396 3.73477,2.16749 8.65859,0.84039 12.56156,2.64259 3.51817,1.14633 5.33245,4.65954 7.52333,7.49791 1.79023,2.55812 5.43796,3.90583 8.36757,1.46026 2.69464,-2.6515 3.06466,-6.82193 3.37866,-10.29178 0.0112,-5.901 -0.028,-12.1302 -2.51173,-17.15238 -0.97746,-2.045 -2.4881,-3.52987 -4.29602,-4.49508 z"
         id="path4034"
         style="opacity:0.5;fill:#7f7f7f" />
      <path
         d="m 191.36063,56.981851 c -0.1029,-0.05324 -0.21029,-0.103322 -0.31851,-0.149277 -4.57111,-1.373675 -9.60027,2.553126 -12.36487,6.912947 -2.69105,3.858267 -3.99686,9.973862 -0.66431,12.952568 0.48774,0.422793 1.09591,0.67609 1.73215,0.793828 5.58889,0.650994 11.1141,-4.686222 13.31661,-10.382462 1.65798,-3.552394 1.47058,-8.484764 -1.70107,-10.127599 z m -17.58557,-9.162819 c -2.60203,-1.30214 -6.24551,0.69365 -8.20072,3.359331 -3.92578,5.25312 -5.53766,13.534719 -1.46748,18.049243 0.40712,0.374912 0.88894,0.64986 1.41338,0.819459 3.76692,1.159746 7.63396,-2.575134 9.44673,-6.293347 2.47834,-4.858106 3.34926,-11.546961 -0.15056,-15.167461 -0.32154,-0.328469 -0.66978,-0.581282 -1.04135,-0.767224 z m 19.91239,31.607172 c -4.5998,-2.067663 -10.44332,1.520943 -13.49544,6.163369 -2.47521,3.201298 -3.41441,8.756831 -0.16707,10.862897 4.77592,2.476843 11.21913,-1.764507 14.11687,-6.835688 2.12704,-3.240671 2.64737,-8.282151 -0.45436,-10.190578 z M 154.27477,59.74621 c -1.87546,-1.032228 -4.44606,-0.694968 -6.27841,1.236753 -4.89564,5.170483 -5.71277,14.610664 -0.96575,18.800099 2.01974,1.675089 5.11481,0.68972 7.00541,-1.480659 4.03189,-4.648523 4.88465,-12.103014 2.0347,-16.727477 -0.43411,-0.809088 -1.0628,-1.425262 -1.79595,-1.828715 z m 14.03608,21.527842 c -3.70051,-1.976061 -8.64553,-1.778702 -12.80936,0.232585 -4.64917,2.453895 -9.16947,5.787687 -12.60291,10.191942 -2.88149,2.949799 -2.75852,8.192183 0.38891,9.913961 3.73478,2.16748 8.65858,0.84039 12.56157,2.6426 3.51815,1.14631 5.33247,4.65952 7.52332,7.4979 1.79024,2.55811 5.43798,3.90584 8.36756,1.46027 2.69466,-2.6515 3.06467,-6.82194 3.37867,-10.29181 0.0112,-5.900983 -0.0279,-12.130189 -2.51172,-17.152361 -0.97746,-2.045001 -2.48809,-3.529866 -4.29604,-4.495088 z"
         id="path4036"
         style="opacity:0.5;fill:#7f7f7f" />
      <path
         d="m 52.360664,343.98175 c -0.102998,-0.0531 -0.210053,-0.10376 -0.318494,-0.1493 -4.571122,-1.37367 -9.600279,2.55313 -12.364873,6.91294 -2.691051,3.85827 -3.996873,9.97388 -0.664303,12.95257 0.487732,0.4228 1.095883,0.67612 1.73215,0.79383 5.588871,0.651 11.11409,-4.68621 13.316598,-10.38246 1.657977,-3.55238 1.470587,-8.48477 -1.701064,-10.1276 z m -17.585569,-9.16281 c -2.602036,-1.30215 -6.24551,0.69365 -8.200732,3.35934 -3.925773,5.2531 -5.537658,13.53472 -1.467477,18.04922 0.40712,0.37492 0.888938,0.64987 1.413394,0.81946 3.76691,1.15974 7.633941,-2.57512 9.446731,-6.29335 2.478332,-4.85811 3.34925,-11.54695 -0.150568,-15.16745 -0.321539,-0.32848 -0.669788,-0.58129 -1.041343,-0.76723 z m 19.912386,31.60717 c -4.599807,-2.06766 -10.443327,1.52095 -13.495452,6.16338 -2.475196,3.20128 -3.414412,8.75683 -0.167067,10.8629 4.775898,2.47688 11.219131,-1.76451 14.116879,-6.83571 2.127043,-3.24067 2.647371,-8.28215 -0.45436,-10.19057 z M 15.274793,346.74612 c -1.875454,-1.03225 -4.446056,-0.69496 -6.2783991,1.23675 -4.8956459,5.17047 -5.712772,14.61065 -0.9657605,18.80011 2.0197416,1.67508 5.1148076,0.68972 7.0054056,-1.48066 4.031895,-4.64853 4.884662,-12.10302 2.034705,-16.72748 -0.434108,-0.8091 -1.062799,-1.42526 -1.795951,-1.82872 z m 14.036081,21.52784 c -3.700523,-1.97603 -8.64554,-1.7787 -12.809354,0.23259 -4.649176,2.4539 -9.1694881,5.78769 -12.602916,10.19195 -2.8814969,2.9498 -2.7585086,8.19216 0.388912,9.91396 3.7347782,2.16747 8.658573,0.84039 12.561571,2.64258 3.518158,1.14631 5.332466,4.65954 7.523326,7.4979 1.79023,2.55813 5.437987,3.90584 8.367554,1.46028 2.694657,-2.6515 3.064676,-6.82193 3.378664,-10.29181 0.01118,-5.90098 -0.02793,-12.13018 -2.51172,-17.15236 -0.977457,-2.045 -2.488083,-3.52986 -4.296037,-4.49509 z"
         id="path4038"
         style="opacity:0.5;fill:#7f7f7f" />
      <g
         transform="matrix(0.88093121,0.47324433,-0.47324433,0.88093121,160.86223,-120.63637)"
         id="g4040"
         style="opacity:0.5">
        <path
           d="m 198.56512,291.09503 c -0.11584,0.002 -0.23414,0.008 -0.35122,0.0192 -4.67693,0.95312 -7.24893,6.79239 -7.6211,11.9414 -0.54472,4.6724 1.19912,10.67783 5.54453,11.7247 0.62974,0.14164 1.28537,0.077 1.90158,-0.12042 5.23149,-2.07141 7.57303,-9.38791 6.81757,-15.44821 -0.22059,-3.91406 -2.71988,-8.17047 -6.29136,-8.1167 z m -19.82792,0.25043 c -2.90845,0.0843 -5.1736,3.56671 -5.63449,6.8403 -0.97235,6.48548 1.52693,14.54382 7.24894,16.59461 0.53608,0.1376 1.09064,0.15182 1.63291,0.053 3.86723,-0.76098 5.50631,-5.88122 5.34363,-10.01458 -0.11583,-5.45252 -2.51407,-11.75711 -7.31055,-13.29026 -0.43871,-0.1372 -0.86513,-0.1951 -1.28044,-0.18307 z m 32.49936,18.42035 c -5.03063,0.35534 -8.48008,6.28207 -8.97179,11.81613 -0.66548,3.99149 1.13626,9.33002 4.99364,9.64853 5.37941,-0.0783 9.04822,-6.8638 9.20102,-12.70249 0.34015,-3.86142 -1.58731,-8.54885 -5.22287,-8.76217 z m -44.03331,1.31509 c -2.14066,-0.0218 -4.24556,1.49185 -4.94558,4.0607 -1.86582,6.87167 1.88187,15.57452 8.0463,17.01865 2.57198,0.5198 4.8322,-1.81296 5.47057,-4.61963 1.35192,-6.00308 -1.42464,-12.97354 -6.12375,-15.69867 -0.76532,-0.5073 -1.61074,-0.7526 -2.44754,-0.76105 z m 22.55276,12.32205 c -4.19507,0.0105 -8.4579,2.52454 -11.1741,6.26685 -2.93431,4.36191 -5.3387,9.43796 -6.27902,14.94266 -1.14243,3.96222 1.44683,8.52221 5.03433,8.54947 4.31582,0.14193 8.0253,-3.3573 12.31648,-3.61676 3.64173,-0.65513 6.90262,1.58117 10.17586,3.04476 2.78769,1.40632 6.6389,0.86731 8.0623,-2.67349 1.119,-3.61102 -0.52867,-7.45999 -1.89416,-10.66531 -2.78276,-5.20365 -5.76515,-10.67264 -10.32991,-13.92139 -1.82886,-1.33893 -3.86232,-1.9321 -5.91178,-1.92679 z"
           id="path4042"
           style="fill:#7f7f7f" />
      </g>
      <path
         d="m 288.92152,41.970575 c -0.1029,-0.0532 -0.2103,-0.10332 -0.31851,-0.14927 -4.5711,-1.37367 -9.60027,2.55312 -12.36487,6.91294 -2.69106,3.85826 -3.99685,9.97387 -0.66431,12.95257 0.48773,0.42278 1.09589,0.67612 1.73216,0.79383 5.58888,0.65099 11.11409,-4.68622 13.31659,-10.38246 1.65799,-3.5524 1.47059,-8.48477 -1.70106,-10.1276 z m -17.58555,-9.16281 c -2.60205,-1.30213 -6.24553,0.69365 -8.20075,3.35932 -3.92577,5.25313 -5.53764,13.53473 -1.46748,18.04925 0.40713,0.37491 0.88895,0.64985 1.41339,0.81945 3.76691,1.15973 7.63396,-2.57513 9.44674,-6.29335 2.47835,-4.85809 3.34925,-11.54696 -0.15056,-15.16745 -0.32153,-0.32847 -0.66981,-0.5813 -1.04134,-0.76722 z m 19.91236,31.60716 c -4.5998,-2.06765 -10.44332,1.52094 -13.49544,6.16337 -2.47521,3.2013 -3.4144,8.75683 -0.16705,10.86292 4.77588,2.47688 11.21912,-1.76452 14.11686,-6.83571 2.12704,-3.24067 2.64736,-8.28215 -0.45437,-10.19058 z m -39.41267,-19.67999 c -1.87545,-1.03225 -4.44604,-0.69496 -6.27841,1.23676 -4.89564,5.17048 -5.71279,14.61066 -0.96574,18.80011 2.01972,1.67508 5.11479,0.68971 7.00539,-1.48066 4.03189,-4.64854 4.88465,-12.10304 2.03471,-16.72749 -0.43411,-0.80909 -1.06279,-1.42526 -1.79595,-1.82872 z m 14.03609,21.52786 c -3.70054,-1.97604 -8.64554,-1.77871 -12.80935,0.23257 -4.64918,2.45391 -9.16952,5.78769 -12.60293,10.19194 -2.88149,2.9498 -2.75851,8.19218 0.38892,9.91396 3.73477,2.16749 8.65859,0.84039 12.56156,2.64259 3.51817,1.14633 5.33245,4.65954 7.52333,7.49791 1.79023,2.55812 5.43796,3.905835 8.36757,1.46026 2.69464,-2.6515 3.06466,-6.82193 3.37866,-10.29178 0.0112,-5.901 -0.028,-12.1302 -2.51173,-17.15238 -0.97746,-2.045 -2.4881,-3.52987 -4.29602,-4.49508 z"
         id="path4044"
         style="opacity:0.5;fill:#7f7f7f" />
    </g>
    <g
       id="g4084">
      <g
         transform="matrix(0.13936357,0.07486739,-0.07486739,0.13936357,189.88589,-24.852243)"
         id="g4052"
         style="opacity:0.5">
        <path
           d="m 198.56512,291.09503 c -0.11584,0.002 -0.23414,0.008 -0.35122,0.0192 -4.67693,0.95312 -7.24893,6.79239 -7.6211,11.9414 -0.54472,4.6724 1.19912,10.67783 5.54453,11.7247 0.62974,0.14164 1.28537,0.077 1.90158,-0.12042 5.23149,-2.07141 7.57303,-9.38791 6.81757,-15.44821 -0.22059,-3.91406 -2.71988,-8.17047 -6.29136,-8.1167 z m -19.82792,0.25043 c -2.90845,0.0843 -5.1736,3.56671 -5.63449,6.8403 -0.97235,6.48548 1.52693,14.54382 7.24894,16.59461 0.53608,0.1376 1.09064,0.15182 1.63291,0.053 3.86723,-0.76098 5.50631,-5.88122 5.34363,-10.01458 -0.11583,-5.45252 -2.51407,-11.75711 -7.31055,-13.29026 -0.43871,-0.1372 -0.86513,-0.1951 -1.28044,-0.18307 z m 32.49936,18.42035 c -5.03063,0.35534 -8.48008,6.28207 -8.97179,11.81613 -0.66548,3.99149 1.13626,9.33002 4.99364,9.64853 5.37941,-0.0783 9.04822,-6.8638 9.20102,-12.70249 0.34015,-3.86142 -1.58731,-8.54885 -5.22287,-8.76217 z m -44.03331,1.31509 c -2.14066,-0.0218 -4.24556,1.49185 -4.94558,4.0607 -1.86582,6.87167 1.88187,15.57452 8.0463,17.01865 2.57198,0.5198 4.8322,-1.81296 5.47057,-4.61963 1.35192,-6.00308 -1.42464,-12.97354 -6.12375,-15.69867 -0.76532,-0.5073 -1.61074,-0.7526 -2.44754,-0.76105 z m 22.55276,12.32205 c -4.19507,0.0105 -8.4579,2.52454 -11.1741,6.26685 -2.93431,4.36191 -5.3387,9.43796 -6.27902,14.94266 -1.14243,3.96222 1.44683,8.52221 5.03433,8.54947 4.31582,0.14193 8.0253,-3.3573 12.31648,-3.61676 3.64173,-0.65513 6.90262,1.58117 10.17586,3.04476 2.78769,1.40632 6.6389,0.86731 8.0623,-2.67349 1.119,-3.61102 -0.52867,-7.45999 -1.89416,-10.66531 -2.78276,-5.20365 -5.76515,-10.67264 -10.32991,-13.92139 -1.82886,-1.33893 -3.86232,-1.9321 -5.91178,-1.92679 z"
           id="path4054"
           style="fill:#7f7f7f" />
      </g>
      <g
         transform="matrix(0.15820029,0,0,0.15820029,162.1872,-16.807752)"
         id="g4056"
         style="opacity:0.5">
        <path
           d="m 141.65088,201.38899 c -0.11585,0.002 -0.23415,0.008 -0.35123,0.0192 -4.67692,0.95314 -7.24893,6.7924 -7.62109,11.94144 -0.54473,4.67239 1.19911,10.67779 5.54452,11.7247 0.62975,0.14163 1.28537,0.077 1.90158,-0.12043 5.23149,-2.07142 7.57303,-9.38792 6.81757,-15.44824 -0.22058,-3.91404 -2.71988,-8.17044 -6.29135,-8.1167 z m -19.82792,0.25046 c -2.90845,0.0843 -5.1736,3.56671 -5.63449,6.84029 -0.97234,6.48548 1.52693,14.54382 7.24895,16.59462 0.53607,0.1376 1.09063,0.15179 1.6329,0.053 3.86723,-0.76101 5.50631,-5.88124 5.34362,-10.01461 -0.11583,-5.45252 -2.51406,-11.7571 -7.31054,-13.29024 -0.4387,-0.13719 -0.86513,-0.1951 -1.28044,-0.18306 z m 32.49935,18.42032 c -5.03062,0.35536 -8.48007,6.28209 -8.97178,11.81615 -0.66549,3.99148 1.13626,9.33001 4.99363,9.64853 5.37941,-0.0782 9.04822,-6.8638 9.20102,-12.70249 0.34015,-3.86143 -1.58731,-8.54887 -5.22287,-8.76219 z m -44.0333,1.31511 c -2.14066,-0.0218 -4.24556,1.49185 -4.94556,4.06071 -1.86583,6.87166 1.88185,15.57451 8.04628,17.01863 2.57198,0.51981 4.8322,-1.81295 5.47057,-4.61963 1.35193,-6.00309 -1.42464,-12.97355 -6.12375,-15.69866 -0.76532,-0.50731 -1.61075,-0.7526 -2.44754,-0.76105 z m 22.55274,12.32205 c -4.19505,0.0105 -8.45788,2.52454 -11.17408,6.26685 -2.93431,4.3619 -5.3387,9.43795 -6.27902,14.94265 -1.14243,3.96222 1.44684,8.52222 5.03433,8.54947 4.31583,0.14194 8.02531,-3.3573 12.31646,-3.61676 3.64174,-0.65512 6.90264,1.58118 10.17588,3.04477 2.78768,1.40631 6.6389,0.86731 8.0623,-2.67349 1.119,-3.61102 -0.52867,-7.45999 -1.89417,-10.66532 -2.78276,-5.20364 -5.76515,-10.67263 -10.32991,-13.92138 -1.82886,-1.33893 -3.86232,-1.9321 -5.91179,-1.92679 z"
           transform="matrix(0.88093121,0.47324433,-0.47324433,0.88093121,125.77105,-34.890769)"
           id="path4058"
           style="fill:#7f7f7f" />
      </g>
      <path
         d="m 180.03417,32.406592 c -0.0163,-0.0084 -0.0332,-0.01642 -0.0504,-0.02362 -0.72316,-0.217315 -1.51877,0.403906 -1.95613,1.093629 -0.42573,0.61038 -0.63231,1.577871 -0.10509,2.049101 0.0772,0.06689 0.17337,0.106962 0.27402,0.125584 0.88416,0.102988 1.75826,-0.74136 2.10669,-1.642508 0.2623,-0.561988 0.23265,-1.342293 -0.26911,-1.60219 z m -2.78204,-1.44956 c -0.41164,-0.206 -0.98804,0.109736 -1.29736,0.531449 -0.62106,0.831042 -0.87606,2.141197 -0.23215,2.855392 0.0644,0.05931 0.14063,0.102809 0.2236,0.129639 0.59592,0.183471 1.20769,-0.407385 1.49447,-0.99561 0.39207,-0.768555 0.52985,-1.826731 -0.0238,-2.399495 -0.0509,-0.05197 -0.10596,-0.09196 -0.16474,-0.121376 z m 3.15015,5.000264 c -0.7277,-0.327105 -1.65214,0.240615 -2.13499,0.975048 -0.39158,0.506444 -0.54016,1.385333 -0.0264,1.718514 0.75555,0.391843 1.77487,-0.279146 2.2333,-1.081411 0.33649,-0.512675 0.41881,-1.310239 -0.0719,-1.612151 z m -6.2351,-3.11338 c -0.2967,-0.163303 -0.70337,-0.109943 -0.99325,0.195654 -0.77449,0.81797 -0.90376,2.311409 -0.15278,2.974183 0.31952,0.264998 0.80916,0.109114 1.10826,-0.234241 0.63784,-0.735399 0.77275,-1.914701 0.32189,-2.646292 -0.0687,-0.128 -0.16814,-0.225477 -0.28412,-0.289304 z m 2.22051,3.40571 c -0.58543,-0.312608 -1.36773,-0.281391 -2.02644,0.0368 -0.73551,0.388208 -1.45062,0.915614 -1.99379,1.61237 -0.45585,0.466659 -0.4364,1.296002 0.0615,1.568391 0.59084,0.342894 1.36979,0.13295 1.98724,0.418057 0.55657,0.181346 0.8436,0.73714 1.19019,1.18617 0.28322,0.404697 0.86029,0.617905 1.32375,0.231016 0.4263,-0.419468 0.48483,-1.079231 0.53451,-1.628167 0.002,-0.933537 -0.004,-1.918998 -0.39736,-2.713508 -0.15463,-0.32352 -0.39361,-0.558425 -0.67963,-0.711125 z"
         id="path4064"
         style="opacity:0.5;fill:#7f7f7f" />
      <g
         transform="matrix(0.13936357,0.07486739,-0.07486739,0.13936357,197.19915,-41.09613)"
         id="g4066"
         style="opacity:0.5">
        <path
           d="m 198.56512,291.09503 c -0.11584,0.002 -0.23414,0.008 -0.35122,0.0192 -4.67693,0.95312 -7.24893,6.79239 -7.6211,11.9414 -0.54472,4.6724 1.19912,10.67783 5.54453,11.7247 0.62974,0.14164 1.28537,0.077 1.90158,-0.12042 5.23149,-2.07141 7.57303,-9.38791 6.81757,-15.44821 -0.22059,-3.91406 -2.71988,-8.17047 -6.29136,-8.1167 z m -19.82792,0.25043 c -2.90845,0.0843 -5.1736,3.56671 -5.63449,6.8403 -0.97235,6.48548 1.52693,14.54382 7.24894,16.59461 0.53608,0.1376 1.09064,0.15182 1.63291,0.053 3.86723,-0.76098 5.50631,-5.88122 5.34363,-10.01458 -0.11583,-5.45252 -2.51407,-11.75711 -7.31055,-13.29026 -0.43871,-0.1372 -0.86513,-0.1951 -1.28044,-0.18307 z m 32.49936,18.42035 c -5.03063,0.35534 -8.48008,6.28207 -8.97179,11.81613 -0.66548,3.99149 1.13626,9.33002 4.99364,9.64853 5.37941,-0.0783 9.04822,-6.8638 9.20102,-12.70249 0.34015,-3.86142 -1.58731,-8.54885 -5.22287,-8.76217 z m -44.03331,1.31509 c -2.14066,-0.0218 -4.24556,1.49185 -4.94558,4.0607 -1.86582,6.87167 1.88187,15.57452 8.0463,17.01865 2.57198,0.5198 4.8322,-1.81296 5.47057,-4.61963 1.35192,-6.00308 -1.42464,-12.97354 -6.12375,-15.69867 -0.76532,-0.5073 -1.61074,-0.7526 -2.44754,-0.76105 z m 22.55276,12.32205 c -4.19507,0.0105 -8.4579,2.52454 -11.1741,6.26685 -2.93431,4.36191 -5.3387,9.43796 -6.27902,14.94266 -1.14243,3.96222 1.44683,8.52221 5.03433,8.54947 4.31582,0.14193 8.0253,-3.3573 12.31648,-3.61676 3.64173,-0.65513 6.90262,1.58117 10.17586,3.04476 2.78769,1.40632 6.6389,0.86731 8.0623,-2.67349 1.119,-3.61102 -0.52867,-7.45999 -1.89416,-10.66531 -2.78276,-5.20365 -5.76515,-10.67264 -10.32991,-13.92139 -1.82886,-1.33893 -3.86232,-1.9321 -5.91178,-1.92679 z"
           id="path4068"
           style="fill:#7f7f7f" />
      </g>
    </g>
  </g>
</svg>
